<?xml version="1.0" standalone="no"?>
<!DOCTYPE svg PUBLIC "-//W3C//DTD SVG 20010904//EN"
 "http://www.w3.org/TR/2001/REC-SVG-20010904/DTD/svg10.dtd">
<svg version="1.0" xmlns="http://www.w3.org/2000/svg"
 width="2400.000000pt" height="1081.000000pt" viewBox="0 0 2400.000000 1081.000000"
 preserveAspectRatio="xMidYMid meet">
<metadata>
Created by potrace 1.16, written by Peter Selinger 2001-2019
</metadata>
<g transform="translate(0.000000,1081.000000) scale(0.100000,-0.100000)"
fill="#000000" stroke="none">
<path d="M0 6445 c0 -2401 3 -4365 7 -4365 23 0 456 146 668 225 259 97 328
121 955 335 206 70 475 162 596 204 256 87 449 148 547 170 66 16 71 15 115
-5 73 -33 175 -69 487 -174 392 -132 1329 -472 1593 -579 109 -44 165 -56 176
-37 8 13 -22 149 -46 207 -43 106 -17 132 412 408 179 115 400 258 492 318
215 139 267 167 293 158 11 -4 28 -4 37 1 9 5 24 6 33 3 10 -4 21 -1 26 7 7
12 9 12 9 -1 0 -11 13 -16 53 -17 142 -5 272 -13 290 -19 11 -3 22 -2 26 4 4
6 25 7 59 1 30 -4 106 -6 170 -4 64 2 162 5 217 6 55 1 110 7 122 12 16 7 27
6 38 -3 11 -9 19 -9 28 -2 7 6 43 10 80 9 37 -1 67 1 67 5 0 6 43 5 265 -8
156 -9 184 -11 285 -23 47 -6 110 -13 140 -16 30 -3 78 -12 107 -20 28 -8 70
-15 92 -15 23 0 41 -5 41 -10 0 -6 6 -10 13 -8 6 2 30 -2 52 -9 35 -10 103
-23 195 -38 34 -6 110 -22 140 -30 14 -4 59 -13 100 -20 130 -22 254 -47 275
-55 25 -10 213 -50 280 -60 28 -4 100 -17 160 -29 175 -34 344 -60 420 -65 39
-2 113 -9 165 -15 52 -5 107 -9 121 -7 26 3 157 85 180 112 18 22 27 17 54
-27 l26 -40 -75 -85 c-42 -46 -85 -102 -96 -124 -12 -24 -33 -45 -54 -55 -19
-9 -53 -37 -77 -63 -24 -26 -76 -82 -117 -125 -58 -62 -73 -83 -70 -104 3 -23
10 -29 52 -39 27 -7 89 -18 138 -25 126 -17 140 -11 276 120 111 106 113 109
107 143 -9 46 2 50 96 33 178 -33 306 -48 333 -41 29 7 187 152 226 206 16 22
17 32 7 68 -9 35 -17 44 -49 57 -21 8 -53 15 -71 16 l-32 1 35 8 c19 5 96 10
170 13 74 3 147 7 163 10 18 3 27 0 27 -9 0 -8 -6 -14 -14 -14 -7 0 -45 -39
-84 -87 -39 -49 -83 -101 -99 -118 -16 -16 -85 -93 -153 -170 -68 -77 -157
-175 -197 -218 -77 -83 -88 -112 -50 -126 45 -17 531 -92 558 -86 32 7 53 28
360 369 224 249 234 262 232 298 -2 37 -1 38 40 44 34 6 53 19 104 71 35 34
66 63 70 64 35 3 63 4 63 1 0 -2 -13 -20 -30 -40 -114 -140 -175 -220 -184
-244 -7 -15 -24 -36 -39 -48 -54 -42 -214 -253 -223 -295 -8 -33 -14 -41 -37
-43 -19 -2 -43 -23 -85 -75 -77 -94 -88 -115 -70 -132 15 -13 1279 -225 1345
-225 52 0 69 15 162 140 52 70 69 100 65 115 -11 34 -25 45 -50 39 -15 -4 -24
-2 -24 5 0 6 13 11 29 11 17 0 32 4 35 9 3 5 25 13 49 19 24 6 51 20 60 30 29
32 147 207 147 217 0 6 -7 18 -15 29 -13 17 -15 16 -46 -18 -17 -20 -34 -34
-37 -31 -3 3 -7 24 -9 46 l-4 41 43 -3 c24 -1 50 1 58 4 8 3 32 11 53 17 32
10 49 28 112 117 41 58 75 109 75 112 0 4 -7 16 -15 27 -17 22 -11 27 -95 -87
-50 -68 -67 -80 -98 -73 -29 8 -37 35 -12 41 42 11 11 30 -77 48 -30 6 -31 8
-17 22 12 13 31 15 92 11 42 -3 83 -3 90 -1 6 3 15 21 18 41 l6 37 63 1 c34 1
75 8 91 15 25 12 164 190 164 210 0 4 -5 20 -10 35 l-11 28 -18 -30 c-10 -16
-28 -38 -40 -48 -21 -19 -21 -19 -21 2 0 12 9 26 20 32 23 12 18 32 -6 23 -9
-3 -20 0 -25 8 -7 11 -11 10 -24 -6 -16 -20 -16 -20 -12 3 3 12 2 20 -2 18 -3
-2 -15 3 -26 11 -19 14 -17 15 20 9 95 -14 172 -17 197 -7 18 6 50 44 91 106
58 86 63 99 53 120 -6 14 -18 26 -26 28 -8 2 3 7 25 12 61 12 68 18 130 111
58 87 58 88 42 116 -12 21 -13 30 -4 32 65 17 74 24 125 100 50 75 62 109 43
120 -5 3 -20 -9 -35 -26 -19 -23 -26 -27 -26 -15 0 9 5 17 10 17 6 0 15 12 21
26 5 15 12 24 15 21 3 -3 24 3 46 13 47 21 131 137 126 173 -3 19 -11 12 -51
-41 -27 -34 -56 -62 -65 -62 -21 1 -104 23 -117 32 -5 3 -30 11 -54 18 -24 6
-68 23 -97 37 -47 22 -52 28 -43 44 5 10 21 22 34 25 14 3 25 10 25 15 0 13
56 11 222 -7 142 -16 148 -16 180 2 30 18 118 133 118 155 0 19 -30 8 -47 -17
-15 -24 -60 -50 -70 -41 -2 2 3 17 11 32 14 26 13 30 -2 41 -9 8 -30 14 -47
15 l-30 1 32 8 c17 4 58 5 90 3 53 -3 61 -1 95 27 38 32 98 125 98 154 0 9 19
36 43 59 23 23 58 67 77 97 19 30 44 68 57 83 28 35 29 63 3 77 -13 7 -20 21
-20 40 0 19 -10 40 -29 59 -16 16 -42 47 -57 68 -16 21 -34 44 -41 51 -34 36
-82 101 -98 131 -14 27 -16 48 -10 105 l6 72 -76 107 c-43 59 -92 120 -111
135 -34 27 -47 73 -24 87 6 3 10 17 10 29 0 20 -8 25 -67 40 -38 9 -83 16
-101 16 -46 0 -157 54 -175 86 -4 8 -16 14 -27 14 -10 0 -20 4 -22 9 -9 24
-145 89 -203 97 -11 1 -40 14 -65 28 -25 15 -53 29 -62 32 -10 4 -18 11 -18
16 0 6 -11 8 -25 6 -14 -3 -25 -2 -25 2 0 5 -9 6 -20 3 -11 -3 -28 -2 -37 3
-36 16 -226 19 -231 4 -5 -13 -82 -13 -82 -1 0 5 6 12 13 15 10 5 10 7 0 12
-7 3 -13 19 -13 35 0 22 -5 29 -20 29 -13 0 -18 5 -14 15 4 10 0 15 -15 15
-12 0 -24 -7 -27 -15 -4 -8 -15 -15 -25 -15 -11 0 -30 -9 -41 -20 -14 -12 -24
-16 -28 -10 -4 7 -15 7 -31 1 -13 -5 -18 -10 -10 -10 8 -1 12 -4 8 -7 -8 -8
-426 -16 -455 -9 -12 3 -20 10 -17 14 11 19 -49 28 -94 14 -24 -7 -90 -13
-145 -14 -56 0 -139 -5 -186 -10 -102 -12 -92 -12 -210 -1 -53 5 -110 17 -127
26 -40 20 -57 20 -78 -1 -16 -16 -19 -16 -44 0 -84 54 -134 70 -240 78 -110 8
-209 20 -371 45 -97 15 -170 18 -170 8 0 -22 63 -93 83 -94 4 0 24 -10 45 -23
20 -13 86 -49 145 -81 60 -31 126 -68 149 -82 57 -36 89 -39 266 -20 233 24
595 51 692 51 74 0 91 -3 130 -27 26 -14 67 -50 93 -79 38 -43 50 -50 69 -44
13 3 86 10 163 15 161 10 217 24 292 76 30 21 66 37 81 37 15 0 86 -22 157
-48 129 -47 131 -48 275 -52 201 -7 218 -16 305 -169 31 -55 65 -110 76 -124
40 -52 -15 -140 -115 -184 -32 -14 -69 -26 -82 -26 -42 0 -76 -20 -129 -75
-29 -30 -56 -55 -62 -55 -5 0 -44 -34 -87 -75 l-78 -74 54 -58 c30 -32 76 -82
104 -111 27 -30 57 -69 67 -88 9 -19 23 -34 30 -34 13 0 57 52 57 68 0 4 14
21 30 37 17 16 30 34 30 41 0 6 6 17 14 23 8 7 17 28 21 48 4 24 19 47 45 70
21 19 51 60 65 91 56 118 169 227 233 225 19 -1 46 -10 61 -20 30 -23 79 -108
68 -120 -5 -4 -12 -2 -16 6 -6 10 -10 9 -15 -4 -3 -9 -6 -19 -6 -21 0 -2 27
-31 60 -63 42 -42 60 -67 60 -85 0 -18 -4 -24 -15 -20 -9 4 -15 0 -15 -9 0
-26 -38 -32 -186 -29 -141 2 -141 2 -168 -24 -14 -15 -26 -32 -26 -39 0 -20
-44 -63 -71 -70 -29 -7 -95 -66 -149 -133 -19 -24 -75 -89 -124 -145 -103
-118 -176 -214 -176 -231 0 -7 16 -45 35 -85 20 -40 33 -77 29 -83 -6 -10 183
-197 200 -198 16 0 35 35 36 66 0 25 7 34 40 53 42 23 118 123 125 164 4 20
26 44 72 79 21 15 74 91 90 129 7 15 29 40 49 55 21 16 54 47 73 69 75 85 109
115 130 115 12 0 21 -6 21 -15 0 -38 -129 -262 -170 -295 -3 -3 -18 -26 -33
-52 -15 -25 -56 -78 -91 -117 -36 -38 -72 -85 -82 -103 -15 -30 -76 -108 -132
-168 -13 -14 -30 -38 -38 -54 -15 -27 -14 -31 15 -86 30 -56 42 -130 21 -130
-5 0 -17 15 -26 33 -9 17 -47 59 -83 92 -118 107 -191 187 -197 214 -3 14 -10
36 -15 49 -5 13 -9 35 -9 51 0 19 -10 36 -34 56 -19 16 -32 34 -29 42 3 7 -12
29 -33 48 -21 19 -35 38 -31 41 4 4 13 1 22 -6 9 -7 15 -8 15 -2 0 18 -53 53
-69 47 -8 -3 -12 -3 -8 1 4 4 -3 12 -16 19 -17 8 -22 19 -20 43 1 23 -3 32
-13 32 -11 0 -13 -6 -9 -20 10 -32 -19 -34 -53 -3 -17 15 -47 41 -67 57 -21
17 -48 47 -61 68 -14 21 -36 44 -49 50 -14 6 -25 17 -25 25 0 7 -8 13 -17 13
-15 0 -14 2 3 16 18 14 17 15 -13 11 -32 -3 -45 7 -20 16 9 4 9 6 -1 6 -7 1
-10 6 -7 11 3 6 -4 10 -16 10 -12 0 -19 3 -15 7 3 4 -6 13 -21 20 -25 11 -25
12 -3 7 21 -6 22 -5 9 8 -8 8 -27 18 -43 22 -19 5 -26 12 -22 21 4 11 -2 15
-20 15 -20 0 -25 4 -20 16 4 11 2 15 -6 12 -14 -5 -50 27 -41 35 2 3 -5 15
-17 27 -11 11 -18 25 -15 30 3 5 -8 23 -25 40 -16 16 -30 32 -30 36 0 15 -113
122 -125 118 -7 -3 -15 2 -18 10 -4 9 -16 16 -27 16 -14 0 -24 10 -32 30 -9
28 -11 29 -23 14 -10 -15 -14 -15 -21 -3 -10 16 -44 22 -44 8 0 -15 -22 -10
-36 9 -13 16 -13 16 -14 0 0 -21 -1 -21 -32 -9 -17 6 -24 18 -26 41 -1 18 -7
40 -12 49 -6 11 -7 2 -3 -26 4 -30 1 -46 -9 -57 -18 -18 -39 -2 -31 23 4 15 3
14 -9 -1 -17 -19 -67 -14 -85 10 -11 14 -13 12 -14 -14 -1 -29 -1 -29 -9 -4
-4 14 -9 18 -9 10 -1 -13 -2 -13 -11 0 -9 13 -10 13 -10 0 -1 -12 -3 -12 -14
3 -7 9 -19 17 -27 17 -10 0 -10 -3 -1 -12 17 -17 15 -26 -5 -24 -10 0 -21 8
-24 16 -3 8 -16 15 -29 15 -17 0 -26 7 -31 25 -4 14 -7 18 -8 10 -1 -11 -4
-11 -13 -2 -18 18 -38 15 -38 -5 0 -15 -2 -16 -10 -3 -5 8 -10 11 -10 5 0 -5
-4 -4 -9 3 -10 16 -142 36 -196 28 -22 -3 -34 -3 -27 0 6 3 12 10 12 15 0 13
-34 11 -49 -3 -10 -11 -11 -10 -6 3 5 13 -2 15 -39 15 -24 -1 -42 2 -40 5 2 4
-30 10 -71 14 -41 4 -73 10 -70 15 3 5 -3 7 -12 6 -10 -2 -28 4 -40 12 -13 8
-23 10 -23 4 0 -6 -16 -4 -41 4 -22 8 -52 16 -68 17 -15 2 -31 6 -36 9 -6 3
-31 9 -58 13 -26 4 -49 11 -52 15 -3 5 -29 11 -58 15 -82 10 -157 27 -157 36
0 5 -11 4 -25 -1 -20 -7 -25 -6 -25 5 0 9 -10 15 -24 15 -13 0 -27 6 -29 13
-3 6 -6 3 -6 -8 -1 -15 -3 -17 -10 -6 -5 7 -20 14 -35 14 -14 0 -26 3 -26 7 0
12 -49 22 -63 13 -7 -4 -36 -9 -64 -10 -40 -1 -53 2 -53 13 0 8 -9 14 -20 14
-11 0 -20 -4 -20 -10 0 -13 -96 -13 -121 0 -15 9 -19 7 -19 -6 0 -11 -6 -15
-19 -11 -12 3 -22 -1 -25 -9 -3 -8 -12 -14 -21 -14 -8 0 -15 -4 -15 -9 0 -4
-12 -6 -26 -3 -15 3 -24 1 -21 -4 3 -5 -8 -9 -24 -10 -16 -1 -29 3 -29 9 0 6
-9 2 -19 -7 -10 -10 -35 -18 -55 -19 -23 -1 -36 -7 -36 -16 0 -11 -3 -11 -15
-1 -10 9 -15 9 -15 1 0 -6 -11 -11 -25 -11 -14 0 -25 -5 -25 -10 0 -6 -11 -8
-26 -4 -20 5 -25 4 -19 -5 5 -9 1 -12 -11 -11 -11 1 -21 1 -24 0 -3 -1 -16 -4
-30 -5 -33 -4 -84 -13 -87 -16 -2 -1 -7 -3 -13 -4 -5 -1 -11 -3 -12 -4 -5 -3
-113 -13 -136 -12 -13 1 -20 -4 -17 -9 7 -11 -3 -13 -55 -10 -19 1 -37 5 -40
10 -8 12 -54 24 -46 11 4 -6 4 -16 0 -22 -4 -8 -12 -3 -21 12 l-14 24 7 -23
c6 -23 5 -24 -51 -17 -44 6 -59 4 -66 -6 -6 -11 -11 -11 -21 -1 -17 17 -28 15
-28 -5 0 -14 -2 -15 -9 -4 -7 11 -10 11 -15 0 -4 -10 -8 -10 -11 -3 -7 13 -55
-4 -55 -20 0 -5 -7 -3 -15 4 -10 9 -15 9 -15 1 0 -15 -27 -14 -34 2 -5 9 -7 9
-12 0 -3 -7 -12 -9 -19 -7 -8 3 -20 2 -27 -3 -7 -4 -42 -8 -78 -9 -60 0 -119
-6 -230 -21 -25 -3 -58 -7 -75 -8 -16 -2 -73 -6 -125 -10 -163 -13 -213 -20
-228 -29 -8 -5 -12 1 -12 18 0 19 7 27 25 32 14 3 25 10 25 15 0 5 14 6 30 2
31 -6 115 12 138 30 8 6 12 6 12 -1 0 -6 12 -9 28 -7 15 2 27 4 27 5 0 1 11 3
25 5 14 1 43 6 65 9 22 4 63 9 90 11 130 11 246 33 288 56 10 6 27 7 38 4 15
-5 19 -2 19 15 0 14 6 21 18 19 32 -3 52 1 52 10 0 13 -101 11 -117 -2 -7 -5
-25 -7 -40 -4 -15 3 -39 0 -53 -7 -14 -7 -45 -11 -70 -10 -25 2 -97 -6 -160
-17 -63 -11 -126 -20 -139 -19 -13 0 -29 -4 -36 -10 -6 -5 -25 -9 -41 -9 -33
0 -77 -6 -122 -16 -49 -10 -90 -14 -201 -20 -57 -2 -106 -7 -109 -10 -3 -2
-16 -2 -28 1 -15 4 -24 2 -24 -6 0 -7 -8 -9 -21 -5 -14 5 -25 1 -34 -12 -8
-10 -15 -13 -15 -6 0 12 -17 12 -35 1 -6 -4 -16 -3 -23 1 -16 10 -72 2 -72
-10 0 -13 -28 -11 -32 2 -2 6 -40 10 -101 10 -61 0 -97 3 -97 10 0 6 -5 7 -11
3 -7 -4 -9 -22 -6 -43 l5 -36 -15 35 c-20 48 -22 48 -44 20 -11 -14 -19 -20
-18 -15 4 29 -2 56 -12 49 -6 -3 -9 -24 -7 -45 2 -22 0 -39 -4 -39 -5 0 -8 17
-8 38 0 33 -5 40 -40 60 -22 12 -40 28 -40 36 0 13 -6 14 -57 17 -16 1 -33 6
-40 11 -11 9 -93 19 -155 19 -16 0 -28 4 -28 9 0 13 -57 13 -65 0 -4 -6 -16
-3 -31 7 -21 14 -27 14 -34 3 -7 -11 -12 -11 -23 -2 -12 10 -16 9 -21 -3 -4
-10 -11 -13 -18 -8 -7 4 -31 8 -53 8 -22 0 -45 4 -52 8 -6 4 -18 1 -26 -8 -13
-12 -17 -12 -27 0 -6 7 -19 13 -28 13 -9 0 -24 1 -32 3 -9 2 -14 -2 -12 -11 3
-12 1 -12 -9 -3 -13 13 -47 1 -61 -20 -4 -7 -12 -6 -23 3 -12 10 -13 15 -4 21
7 4 -25 6 -72 4 -47 -2 -85 -8 -87 -14 -5 -16 -52 -14 -58 2 -5 14 -31 16 -52
3 -13 -8 -15 -2 -13 27 1 9 -4 17 -13 17 -9 0 -16 -5 -16 -11 0 -6 -8 -8 -17
-5 -22 7 -92 9 -117 3 -11 -2 -22 -9 -24 -16 -3 -8 -9 -5 -19 9 -12 16 -18 18
-29 9 -8 -7 -24 -8 -41 -4 -16 4 -70 9 -121 11 -52 2 -103 6 -114 10 -61 19
51 24 514 25 616 0 827 -10 1178 -57 63 -8 194 -17 290 -20 96 -2 249 -9 340
-15 173 -11 159 -12 601 41 126 15 190 28 217 46 l25 16 -54 30 c-61 33 -245
127 -361 184 -78 38 -92 52 -82 79 8 20 24 24 140 34 257 24 667 34 894 22
264 -14 326 -23 354 -50 21 -21 27 -81 12 -113 -6 -14 -1 -18 28 -24 46 -8 90
-1 273 42 81 20 176 42 210 49 35 8 113 31 175 52 113 38 113 38 273 37 88 0
151 2 141 4 -15 3 -16 6 -5 13 11 7 10 10 -7 15 -18 5 -22 13 -20 42 3 60 -43
108 -154 164 -52 26 -118 55 -146 64 -28 8 -64 28 -80 43 -16 15 -45 36 -64
47 -19 10 -39 25 -43 32 -4 6 -14 12 -21 12 -7 0 -26 19 -43 43 -41 55 -114
129 -144 145 -13 7 -33 18 -44 25 -157 96 -180 105 -315 132 -47 9 -95 23
-107 31 -12 8 -30 14 -40 14 -10 0 -31 7 -48 16 -45 23 -150 64 -166 64 -8 0
-41 14 -73 30 -32 17 -64 30 -71 30 -7 0 -18 7 -25 15 -7 8 -19 15 -27 15 -8
0 -37 11 -65 25 -27 14 -55 25 -61 25 -6 0 -18 6 -26 13 -9 8 -42 20 -74 27
-32 7 -60 17 -63 22 -3 4 -14 8 -25 8 -11 0 -41 8 -67 19 -26 10 -78 28 -117
39 -38 12 -113 35 -165 51 -52 16 -109 32 -127 36 -18 3 -49 14 -70 24 -21 10
-76 26 -123 35 -295 61 -374 84 -545 160 -131 58 -169 81 -188 114 l-19 32 34
14 c22 10 69 14 138 14 236 -1 229 -2 246 37 19 46 17 128 -4 190 -13 39 -28
58 -72 91 -30 23 -73 48 -95 54 -22 7 -44 16 -50 20 -5 4 -48 13 -95 19 -119
17 -158 7 -250 -62 -41 -32 -81 -57 -87 -57 -7 0 -30 -9 -50 -20 -21 -11 -45
-20 -53 -20 -21 0 -53 -37 -37 -44 7 -2 4 -5 -5 -5 -36 -2 -84 -73 -72 -106 4
-8 2 -15 -4 -15 -6 0 -12 5 -14 11 -3 8 -14 7 -38 -3 -19 -8 -41 -13 -47 -11
-7 3 -13 -2 -13 -10 0 -18 -50 -20 -56 -2 -3 7 -20 16 -38 19 -18 4 -41 15
-51 26 -10 11 -24 20 -31 20 -7 0 -17 6 -21 13 -4 7 -25 21 -45 30 -20 10 -40
22 -43 27 -3 6 -15 10 -25 10 -10 0 -25 9 -33 21 -10 14 -28 21 -62 24 -26 2
-55 11 -64 19 -10 9 -23 16 -29 16 -7 0 -12 6 -12 13 0 15 -65 47 -100 49 -14
0 -43 -4 -65 -10 -64 -17 -215 -27 -215 -13 0 6 -14 11 -31 11 -17 0 -39 5
-50 10 -15 8 -19 7 -19 -5 0 -19 -10 -19 -46 0 -26 13 -29 13 -32 0 -2 -8 -8
-13 -13 -9 -6 4 -6 11 2 20 6 7 9 20 6 28 -4 10 -1 13 9 9 10 -4 12 0 8 11 -3
9 -12 16 -20 16 -18 0 -18 15 1 33 7 8 17 26 20 40 4 15 14 32 22 38 8 7 20
27 28 45 7 18 24 38 37 45 12 6 25 15 28 18 11 13 51 31 68 31 25 0 62 33 62
54 0 38 19 54 72 61 29 4 58 11 63 16 6 4 60 13 120 18 61 5 144 17 185 25 58
11 94 12 160 5 106 -12 211 -28 221 -35 4 -2 33 -9 64 -15 31 -6 76 -21 100
-35 24 -13 56 -24 70 -24 15 0 24 -4 20 -10 -3 -5 2 -10 13 -10 10 0 38 -10
63 -22 52 -25 126 -47 191 -57 25 -4 53 -13 62 -20 9 -7 22 -11 30 -8 7 3 17
2 22 -2 5 -4 28 -14 52 -21 23 -7 42 -19 42 -27 0 -8 12 -13 30 -13 37 0 80
-19 80 -37 0 -9 14 -13 45 -13 32 0 45 -4 45 -14 0 -8 8 -13 18 -12 9 2 27 -3
39 -11 12 -8 27 -12 33 -8 9 6 77 -28 90 -45 3 -4 15 -12 28 -19 19 -10 29 -7
83 31 34 24 68 48 76 53 76 53 131 146 140 238 5 64 -13 368 -47 752 -11 121
-22 254 -25 295 -3 41 -7 100 -10 130 -13 158 -33 845 -35 1203 l0 107 -694 0
-695 0 -14 -29 c-13 -26 -13 -33 0 -58 8 -16 11 -37 7 -53 -6 -24 -11 -88 -17
-212 -1 -32 2 -53 7 -48 4 4 7 27 4 49 -2 23 0 41 4 41 5 0 9 -22 10 -50 1
-27 2 -58 2 -67 1 -10 -5 -18 -12 -18 -17 0 -31 -23 -25 -45 5 -20 -16 -31
-46 -23 -17 4 -19 8 -10 19 9 11 6 14 -15 14 -16 0 -26 5 -26 15 0 8 -7 15
-15 15 -20 0 -19 20 3 36 16 13 16 13 -1 14 -15 0 -18 7 -16 43 1 23 -2 50 -6
61 -5 11 -3 26 4 37 7 12 7 19 1 19 -6 0 -10 33 -10 80 0 47 -4 80 -10 80 -5
0 -10 9 -10 20 0 11 -7 23 -15 26 -8 4 -15 12 -15 20 0 12 -371 14 -2505 14
-1378 0 -2505 -3 -2505 -8 0 -4 16 -48 36 -97 19 -50 46 -121 59 -160 29 -91
45 -125 71 -154 26 -28 35 -86 25 -158 -4 -29 -4 -58 0 -64 10 -17 4 -219 -7
-227 -5 -4 -9 -11 -9 -17 -2 -37 -18 -116 -26 -121 -5 -3 -5 -13 1 -24 7 -14
6 -23 -4 -33 -9 -8 -12 -24 -9 -36 3 -11 1 -21 -3 -21 -10 0 -11 -46 -2 -70 4
-8 11 -37 18 -64 11 -48 10 -50 -17 -72 -15 -13 -31 -23 -35 -24 -3 0 -12 -16
-18 -36 -10 -29 -10 -53 0 -110 8 -47 10 -95 5 -131 -4 -32 -8 -78 -9 -103 -1
-25 -7 -55 -14 -67 -9 -17 -9 -22 1 -26 9 -3 8 -9 -4 -23 -10 -10 -19 -28 -20
-38 -2 -11 -17 -24 -34 -29 -16 -6 -34 -16 -38 -23 -4 -8 -15 -14 -22 -14 -8
0 -15 -9 -15 -20 0 -11 -7 -23 -15 -26 -8 -4 -15 -15 -15 -25 0 -10 -7 -19
-15 -19 -8 0 -15 -9 -15 -20 0 -16 -7 -20 -31 -20 -24 0 -30 -3 -25 -16 3 -9
6 -24 6 -35 0 -10 7 -19 15 -19 28 0 28 -29 1 -65 -15 -19 -24 -39 -21 -45 8
-13 -84 -190 -115 -220 -12 -11 -60 -90 -60 -98 0 -24 -124 -172 -144 -172 -5
0 -14 -6 -20 -14 -13 -16 -89 -46 -116 -46 -11 0 -20 -4 -20 -9 0 -5 -15 -14
-33 -20 -36 -12 -115 -81 -140 -123 -10 -15 -17 -39 -17 -53 0 -14 -4 -25 -9
-25 -8 0 -26 -65 -23 -81 4 -23 2 -98 -3 -116 -6 -17 -3 -23 9 -23 9 0 16 -3
16 -8 0 -13 -64 -66 -77 -64 -7 2 -13 -4 -13 -13 0 -8 -4 -15 -10 -15 -5 0
-10 4 -10 9 0 6 -9 8 -19 6 -20 -4 -37 20 -22 30 5 2 14 51 21 107 7 57 19
110 26 119 17 19 8 75 -13 83 -9 4 -27 -8 -45 -29 -17 -19 -34 -32 -38 -30 -4
2 -20 -9 -35 -25 -35 -37 -42 -37 -43 -2 -5 132 -9 162 -26 181 -11 12 -15 27
-12 39 6 16 1 21 -29 26 -21 4 -35 13 -35 21 0 8 5 15 10 15 6 0 10 -4 10 -10
0 -5 17 -10 38 -10 31 0 41 5 50 25 13 28 6 36 -23 24 -17 -6 -17 -8 -2 -8 21
-1 23 -17 2 -25 -22 -8 -65 11 -65 29 0 8 -5 15 -11 15 -6 0 -8 -7 -5 -16 5
-12 1 -14 -17 -9 -16 5 -18 4 -8 -4 11 -7 7 -11 -20 -15 -77 -12 -117 -13
-131 -5 -9 5 -49 10 -90 12 -92 5 -102 10 -93 51 3 17 8 166 10 331 2 185 7
316 14 343 7 24 9 62 6 85 -4 23 1 86 9 140 13 78 14 106 4 145 -8 32 -12 198
-13 524 -2 336 -5 481 -13 491 -9 10 -8 17 0 25 7 7 8 12 4 12 -5 0 -3 6 3 14
10 12 22 11 83 -10 101 -34 285 -43 392 -20 182 41 336 160 516 401 101 134
180 252 180 267 0 4 -364 8 -810 8 l-810 0 0 -4365z m6150 4273 c0 -9 3 -8 10
2 5 8 12 11 16 7 4 -3 1 -13 -6 -22 -15 -18 1 -21 31 -5 17 10 19 7 19 -30 0
-22 5 -40 10 -40 6 0 10 6 10 14 0 9 7 12 20 9 16 -4 18 -8 9 -19 -9 -11 -5
-16 17 -24 19 -8 29 -8 34 0 4 6 13 -7 20 -30 7 -22 16 -40 20 -40 9 0 39 -70
46 -111 4 -18 12 -43 18 -54 7 -11 18 -47 26 -80 7 -33 17 -65 22 -72 5 -6 8
-20 6 -30 -1 -10 1 -23 4 -29 6 -9 17 -85 32 -229 12 -109 19 -267 27 -636 5
-222 10 -415 11 -429 5 -68 -11 -168 -33 -210 -13 -25 -26 -47 -29 -50 -3 -3
-5 -12 -5 -20 0 -8 -10 -16 -22 -18 -24 -4 -28 -17 -24 -79 3 -44 -24 -58 -61
-31 -16 11 -26 24 -23 29 4 5 -3 9 -15 9 -11 0 -31 11 -43 24 -12 13 -49 38
-82 55 -80 43 -145 104 -160 150 -3 12 -10 21 -14 21 -4 0 -8 6 -8 13 -3 44
-12 80 -25 95 -16 20 -16 75 1 116 8 19 10 54 6 100 -11 114 -12 190 -3 208 4
9 3 30 -3 47 -9 25 -8 34 6 47 14 14 15 34 11 143 -18 417 -20 743 -5 1024 1
15 8 27 15 27 10 0 14 13 14 40 0 29 4 40 15 40 8 0 16 8 16 18 1 16 2 16 6 0
8 -30 21 -20 28 22 4 25 12 40 21 40 8 0 14 -6 14 -12z m-1111 -717 c11 -25
21 -52 21 -58 0 -7 3 -13 8 -13 4 0 7 -43 7 -95 l0 -95 -31 -16 c-31 -17 -33
-17 -61 7 -29 24 -70 103 -65 126 1 6 -2 14 -8 18 -11 7 -14 104 -4 152 4 20
14 33 32 39 38 14 74 -10 101 -65z m-944 -2579 c11 -9 36 -39 55 -67 32 -47
35 -56 41 -155 9 -152 38 -489 44 -528 7 -39 -4 -152 -15 -152 -4 0 -13 13
-20 29 -6 16 -26 45 -44 65 -18 19 -31 38 -27 41 3 3 -2 3 -12 -1 -13 -4 -17
-1 -17 14 0 12 -5 24 -10 27 -6 4 -10 14 -9 23 2 10 -4 33 -13 53 -9 20 -21
59 -27 87 -15 72 -51 384 -51 447 0 108 50 164 105 117z m20 -1091 c-3 -5 6
-22 20 -37 14 -15 23 -34 20 -41 -2 -8 -1 -12 4 -9 11 7 23 -22 15 -35 -3 -6
6 -22 20 -36 32 -31 32 -46 5 -85 -20 -28 -21 -32 -7 -57 18 -31 13 -51 -13
-51 -16 0 -18 5 -13 27 6 21 4 25 -9 20 -37 -14 -55 45 -74 240 -5 54 -3 62
13 66 11 3 20 5 22 6 2 0 1 -3 -3 -8z m-2479 -123 c-1 -19 4 -23 29 -23 20 0
31 -6 33 -17 3 -14 -3 -18 -24 -18 -15 0 -36 -7 -46 -17 -17 -15 -18 -15 -19
13 l-1 29 -11 -27 c-7 -17 -20 -28 -39 -32 -16 -3 -28 -12 -28 -21 0 -8 -9
-15 -20 -15 -13 0 -18 -5 -14 -15 5 -11 2 -13 -10 -9 -9 3 -16 1 -16 -5 0 -9
-5 -9 -20 -1 -19 10 -25 6 -20 -15 1 -5 -4 -5 -11 2 -6 6 -13 23 -14 38 -2 14
-9 34 -17 43 -12 15 -11 16 5 3 9 -7 18 -11 18 -7 1 3 2 10 3 15 2 19 16 23
22 7 4 -10 2 -22 -5 -29 -14 -14 -15 -37 -1 -37 5 0 9 3 9 8 -4 22 3 30 22 25
19 -5 21 -3 17 22 -4 18 0 33 13 46 11 11 19 14 21 7 3 -7 9 -8 19 -3 8 5 20
10 28 11 7 2 22 12 32 23 26 27 46 27 45 -1z m1079 -44 c198 -27 346 -69 465
-134 19 -10 43 -19 53 -20 35 0 58 -21 86 -78 16 -31 42 -82 60 -112 34 -61
38 -80 16 -80 -8 0 -15 7 -15 16 0 9 -9 18 -20 21 -12 3 -19 11 -17 17 2 6 -3
25 -11 41 -16 30 -18 36 -21 54 0 5 -8 16 -16 24 -23 24 -142 16 -172 -11
l-23 -20 -16 21 -16 22 7 -23 c8 -29 -12 -92 -31 -92 -8 0 -14 -7 -14 -15 0
-15 -11 -19 -38 -16 -8 1 -16 -7 -19 -18 -6 -24 -16 -26 -35 -8 -15 15 -33 16
-45 3 -4 -5 -3 -6 4 -2 13 7 37 -27 26 -38 -3 -3 1 -6 10 -6 24 0 21 -17 -7
-36 -15 -9 -23 -21 -19 -30 3 -8 2 -14 -3 -13 -21 4 -35 -2 -29 -11 4 -6 11
-7 17 -4 6 4 6 -2 -1 -15 -7 -11 -16 -21 -21 -21 -5 0 -15 -7 -24 -15 -13 -14
-15 -12 -12 12 1 21 7 28 21 26 20 -1 20 -1 1 13 -17 12 -22 12 -37 -2 -16
-15 -17 -14 -12 5 3 12 12 21 19 21 8 0 14 5 14 10 0 7 6 7 19 0 27 -14 29
-13 25 15 -1 14 5 32 13 41 14 13 13 17 -7 34 -13 11 -18 20 -12 20 7 0 12 6
12 14 0 21 21 31 31 15 5 -8 9 -9 9 -4 0 6 5 3 11 -5 8 -12 10 -9 6 13 -3 18
0 27 9 27 8 0 14 -5 14 -11 0 -5 5 -7 12 -3 9 6 9 9 0 12 -7 2 -12 10 -12 17
0 7 -5 15 -11 17 -9 3 -9 9 0 25 6 12 11 36 11 54 0 27 -2 30 -15 19 -11 -9
-12 -16 -5 -25 23 -27 -7 -51 -57 -44 -3 0 -10 -7 -16 -16 -8 -15 -10 -15 -24
5 -15 21 -15 21 -33 2 -12 -12 -17 -28 -13 -41 5 -21 -11 -29 -22 -11 -3 6 -1
10 5 10 7 0 6 5 -2 14 -7 8 -16 12 -20 9 -13 -7 -9 -51 4 -55 7 -3 8 -9 3 -18
-4 -7 -9 -26 -10 -42 -2 -16 -5 -32 -9 -35 -9 -10 -36 18 -36 38 0 11 -5 19
-11 19 -7 0 -9 -11 -6 -26 3 -18 1 -22 -6 -15 -6 6 -11 33 -10 59 1 26 -1 41
-4 34 -4 -10 -8 -10 -19 -1 -13 10 -13 8 -4 -15 15 -40 12 -56 -10 -56 -23 0
-26 19 -7 40 10 12 9 12 -5 1 -12 -9 -18 -10 -18 -3 0 6 -10 16 -21 23 -17 9
-20 8 -16 -3 2 -7 9 -12 15 -11 5 1 8 -6 5 -17 -3 -11 -9 -18 -13 -15 -5 3
-11 1 -15 -4 -3 -6 -12 -8 -19 -5 -8 3 -17 0 -21 -7 -5 -7 -3 -10 6 -7 8 3 19
-2 26 -11 18 -24 16 -34 -7 -28 -11 3 -20 4 -20 3 0 0 4 -17 10 -35 5 -19 6
-30 2 -25 -31 35 -51 68 -46 75 3 5 0 9 -6 9 -8 0 -9 -7 -5 -17 7 -19 13 -41
14 -58 1 -5 6 -3 12 5 7 10 9 11 7 2 -2 -8 -6 -12 -9 -10 -3 2 -14 -4 -24 -12
-11 -8 -16 -10 -12 -3 11 18 -15 28 -28 10 -8 -11 -15 -13 -22 -6 -8 8 -13 7
-18 -2 -6 -8 -4 -10 5 -4 9 5 11 4 6 -3 -9 -14 -36 -16 -36 -3 0 6 4 12 10 16
5 3 7 12 4 20 -4 8 -11 12 -17 8 -6 -3 -7 -1 -3 5 3 6 16 9 29 7 20 -4 20 -3
5 8 -9 7 -13 18 -9 25 4 7 11 0 19 -17 9 -21 19 -28 36 -27 28 1 24 18 -9 40
-16 11 -22 23 -19 43 2 27 2 27 -12 9 -11 -16 -17 -17 -26 -8 -7 7 -8 12 -2
12 6 0 11 7 11 15 0 8 -4 12 -9 9 -4 -3 -8 0 -8 6 0 7 -7 10 -15 6 -18 -7 -20
5 -3 22 12 12 10 13 -14 16 -6 0 -13 7 -16 14 -3 11 0 12 17 3 11 -7 21 -9 21
-6 0 3 10 1 21 -6 13 -7 19 -7 15 -1 -3 6 -2 13 4 17 18 11 0 25 -25 19 -29
-7 -46 2 -39 21 4 9 16 13 34 11 24 -3 28 0 24 17 -4 25 -14 35 -15 16 0 -8
-5 -1 -9 15 -12 40 -2 52 21 25 11 -12 22 -19 25 -16 4 4 20 -3 35 -14 l29
-20 -10 27 c-8 19 -8 30 0 38 7 7 10 3 10 -12 0 -12 5 -22 10 -22 6 0 10 4 10
10 0 5 7 7 15 4 8 -4 15 -13 15 -22 0 -11 3 -13 11 -5 8 8 7 17 -3 32 -11 19
-11 24 2 34 16 13 20 41 7 53 -4 4 -7 -4 -8 -17 0 -13 -3 -18 -6 -11 -2 6 -11
12 -19 12 -9 0 -12 5 -8 12 5 8 2 9 -9 5 -12 -4 -21 2 -31 21 -8 15 -18 26
-23 24 -4 -2 -14 6 -22 18 -13 20 -13 22 5 20 25 -3 64 10 64 20 0 11 29 18
60 14 14 -2 79 -11 145 -20z m4359 -817 c4 1 14 10 22 20 7 10 14 13 14 6 0
-8 9 -9 28 -3 17 4 36 4 46 -2 10 -6 26 -8 37 -5 10 3 19 1 19 -4 0 -5 9 -9
20 -9 14 0 18 5 13 18 -6 14 -4 15 9 4 8 -7 23 -10 32 -6 9 3 16 1 16 -6 0 -6
5 -8 12 -4 16 10 58 14 58 6 0 -4 16 -8 35 -9 20 -1 35 3 35 10 0 6 6 3 13 -8
11 -14 16 -15 22 -5 6 10 12 7 26 -11 15 -20 19 -21 19 -6 0 20 18 23 26 3 3
-8 15 -11 31 -8 17 3 29 -1 35 -12 11 -20 32 -21 24 -1 -6 16 2 19 20 7 18
-12 22 -36 9 -49 -7 -6 -16 -9 -19 -5 -4 3 -4 -1 0 -11 4 -12 13 -15 30 -11
19 5 24 2 24 -14 0 -29 -21 -38 -37 -17 -12 17 -18 13 -14 -9 1 -5 -5 -6 -14
-3 -8 4 -15 1 -16 -6 0 -9 -2 -9 -6 1 -2 6 -9 9 -14 6 -6 -3 -16 -1 -23 5 -11
9 -14 9 -13 -1 1 -7 -2 -37 -7 -67 -7 -43 -10 -51 -18 -37 -5 10 -7 28 -4 41
4 14 1 25 -7 28 -8 3 -12 -8 -12 -37 0 -28 -4 -40 -13 -38 -9 1 -11 -5 -6 -23
6 -25 -10 -36 -19 -12 -5 11 -7 6 -11 -35 -1 -15 -36 -24 -36 -10 0 6 6 13 13
15 7 3 4 6 -7 6 -14 1 -17 -4 -14 -24 4 -17 1 -25 -8 -25 -7 0 -11 6 -8 14 4
11 -4 13 -40 9 -38 -5 -46 -3 -46 11 0 9 -5 16 -10 16 -6 0 -19 15 -30 33 -21
34 -28 30 -9 -5 9 -16 8 -19 -3 -16 -7 3 -18 14 -24 26 -6 12 -14 19 -17 16
-3 -4 -9 7 -12 22 -11 50 -13 50 -15 4 -1 -25 -4 -38 -7 -30 -19 57 -53 109
-53 81 0 -5 5 -13 10 -16 6 -3 10 -16 9 -28 0 -19 -2 -19 -11 6 -5 15 -14 27
-19 27 -6 0 -7 5 -3 12 5 8 2 9 -10 5 -10 -4 -19 -1 -23 8 -4 12 -9 13 -19 4
-12 -9 -14 -5 -13 27 0 22 3 33 6 26 7 -18 23 -4 22 21 0 12 -3 16 -6 10 -7
-19 -23 -16 -24 5 0 9 -3 12 -6 5 -3 -10 -9 -10 -24 0 -16 10 -21 9 -29 -3 -8
-13 -10 -12 -10 3 0 9 -4 17 -10 17 -5 0 -10 -8 -10 -17 0 -13 -5 -12 -26 8
-23 21 -25 22 -22 5 2 -14 -3 -19 -20 -21 -15 -1 -21 3 -18 11 3 7 1 16 -4 19
-4 3 -10 -1 -13 -7 -2 -7 -4 10 -4 37 0 28 2 44 4 38 3 -8 14 -11 29 -7 14 4
24 2 24 -5 0 -6 7 -8 16 -4 9 3 20 0 25 -8 6 -11 11 -11 21 -1 9 9 9 12 0 12
-6 0 -9 7 -5 16 5 13 7 13 15 2 7 -10 11 -9 20 7 12 19 13 18 18 -10 3 -16 9
-29 14 -28z m3496 -48 c9 -14 54 -17 68 -6 10 8 12 7 10 -4 -2 -8 -7 -17 -13
-21 -5 -4 0 -8 13 -8 12 0 22 -5 22 -10 0 -7 15 -9 38 -6 27 4 30 3 12 -2 -25
-8 -24 -9 10 -20 67 -21 191 -44 210 -39 11 3 18 1 14 -4 -3 -5 5 -8 18 -8 13
1 43 -3 68 -9 82 -19 311 -35 434 -30 172 7 466 -7 636 -31 233 -33 272 -41
319 -64 29 -14 170 -147 422 -398 209 -207 379 -381 379 -386 0 -5 -7 -18 -15
-29 -14 -18 -16 -18 -29 -1 -7 9 -21 17 -30 17 -20 0 -20 9 -2 35 12 18 11 20
-14 21 -15 1 -36 4 -45 8 -15 5 -15 9 -4 23 12 14 12 16 -1 11 -9 -3 -24 0
-35 8 -13 10 -21 11 -25 3 -5 -7 -12 -5 -23 5 -9 9 -23 13 -32 9 -15 -5 -16
-3 -6 15 16 29 15 31 -19 30 -17 -1 -33 2 -37 5 -3 4 2 7 13 7 16 0 17 2 4 10
-8 5 -23 7 -33 4 -10 -3 -17 -2 -16 3 5 28 -3 54 -15 51 -8 -2 -14 0 -13 3 1
3 -4 13 -12 23 -11 13 -16 14 -29 4 -13 -11 -14 -10 -3 9 10 20 9 23 -15 29
-19 5 -22 9 -12 15 9 6 7 9 -9 9 -14 0 -23 6 -23 16 0 8 -3 13 -8 10 -14 -8
-45 23 -38 39 3 9 2 13 -4 10 -6 -3 -10 -1 -10 4 0 6 -7 11 -16 11 -11 0 -14
6 -9 20 4 12 2 20 -5 20 -20 0 -80 63 -80 85 -1 18 -2 18 -14 -4 l-14 -24 -7
22 c-5 15 -13 21 -24 18 -14 -3 -17 1 -13 19 5 26 -15 33 -24 9 -4 -8 -13 -15
-22 -15 -13 0 -12 4 4 23 44 49 47 56 25 50 -12 -3 -21 -12 -21 -19 0 -18 -13
-18 -58 3 -20 9 -40 17 -44 17 -3 1 -10 4 -14 9 -4 4 -16 7 -26 7 -24 0 -23
31 2 63 22 28 25 43 10 52 -5 3 -7 0 -4 -9 3 -9 -2 -17 -15 -21 -12 -3 -19
-10 -16 -14 2 -5 -2 -16 -9 -27 -12 -15 -16 -16 -30 -5 -11 9 -16 10 -16 2 0
-18 -25 -13 -53 12 -32 27 -32 30 -11 52 9 9 14 18 11 21 -6 6 -36 -23 -52
-50 -13 -22 -70 -33 -62 -12 5 12 1 13 -18 6 -27 -10 -52 10 -39 31 4 7 -3 5
-17 -4 -30 -22 -43 -22 -34 1 5 14 4 15 -6 5 -18 -18 -32 -16 -25 2 3 8 1 15
-4 15 -6 0 -10 -9 -10 -20 0 -11 -4 -20 -10 -20 -5 0 -10 4 -10 9 0 9 -38 24
-54 22 -5 -1 -13 4 -17 11 -7 10 -9 10 -9 1 0 -7 -5 -13 -11 -13 -6 0 -9 9 -6
20 3 13 1 18 -6 13 -6 -4 -52 -8 -102 -8 -68 -2 -94 1 -108 13 -9 8 -20 12
-24 9 -3 -4 -1 -7 5 -7 7 0 12 -4 12 -10 0 -12 -67 -13 -74 -1 -10 16 -166 34
-166 19 0 -5 -9 -3 -21 4 -17 11 -22 10 -35 -6 -13 -19 -14 -19 -14 -2 0 15
-3 16 -14 7 -10 -9 -15 -8 -19 4 -4 8 -13 12 -22 9 -8 -4 -15 -1 -15 6 0 7 -6
10 -12 7 -43 -15 -60 -18 -54 -9 4 7 -15 13 -54 18 -34 4 -57 11 -54 16 4 6
-3 5 -14 -1 -26 -14 -42 -14 -22 0 11 8 6 9 -20 4 -27 -5 -32 -4 -20 5 12 9 8
11 -20 9 -60 -2 -67 0 -50 12 11 8 9 9 -10 4 -27 -8 -28 -8 -50 -6 -11 1 -12
4 -3 9 8 5 4 11 -12 18 -20 10 -22 9 -17 -5 5 -14 3 -14 -11 -2 -10 8 -31 12
-52 9 -39 -4 -43 -1 -18 17 15 11 11 12 -24 5 -24 -4 -40 -3 -37 1 3 5 -9 9
-26 9 -23 0 -33 5 -37 19 -3 13 -11 17 -25 13 -14 -3 -19 -1 -14 6 3 6 2 13
-4 17 -5 3 -10 -1 -10 -9 0 -9 -5 -16 -11 -16 -5 0 -7 5 -4 10 3 6 -3 10 -14
10 -12 0 -21 5 -21 10 0 6 -5 10 -11 10 -5 0 -7 -4 -4 -10 3 -5 1 -10 -4 -10
-6 0 -11 4 -11 8 0 4 -9 8 -20 8 -11 0 -20 -4 -20 -9 0 -5 -7 -6 -16 -3 -21 8
-56 -3 -49 -15 4 -5 1 -9 -5 -9 -7 0 -10 7 -6 15 3 8 1 15 -4 15 -6 0 -10 -4
-10 -9 0 -5 -21 -6 -46 -3 -33 3 -49 1 -55 -9 -6 -9 -9 -10 -9 -2 0 17 15 24
59 26 22 0 37 5 35 9 -3 4 2 8 10 8 8 0 18 -5 22 -11 5 -8 9 -8 14 1 5 9 13 9
26 2 14 -7 23 -6 33 5 12 13 11 14 -7 9 -11 -4 -23 -2 -26 3 -8 12 177 12 184
0z m375 -724 c99 -22 156 -34 185 -41 59 -12 106 -27 117 -36 6 -5 17 -8 25
-7 7 1 26 -3 41 -9 16 -7 35 -12 42 -12 8 0 12 -6 9 -14 -3 -8 -11 -13 -18
-10 -7 3 -25 0 -39 -5 -19 -7 -27 -7 -27 0 0 6 -7 8 -16 5 -12 -4 -15 -2 -10
9 4 13 -1 14 -33 9 -24 -4 -41 -2 -45 5 -4 6 -18 11 -32 11 -14 0 -23 4 -20 9
3 4 -7 14 -22 20 -18 9 -28 9 -30 2 -2 -6 -11 -11 -20 -11 -15 0 -15 2 -2 10
11 7 6 8 -17 4 -22 -4 -33 -3 -33 5 0 6 -15 11 -33 11 -19 0 -37 3 -40 7 -4 3
-21 8 -37 10 -37 4 -82 31 -74 45 4 6 18 7 33 4 14 -3 58 -12 96 -21z m820
-214 c132 -25 307 -36 336 -21 17 10 24 9 36 -3 13 -13 11 -18 -19 -40 -50
-38 -130 -83 -161 -91 -18 -4 -33 -18 -44 -41 -9 -19 -20 -35 -24 -35 -4 0
-19 14 -33 30 l-25 31 30 27 c22 19 28 32 23 45 -5 15 -16 18 -64 15 -60 -3
-64 -1 -155 76 -37 31 -29 32 100 7z m1540 -203 c71 -90 134 -213 118 -229
-14 -14 -33 -3 -33 19 0 9 -16 33 -36 53 -19 20 -36 48 -38 62 -3 27 -25 61
-34 52 -3 -3 3 -12 14 -20 10 -8 14 -15 7 -15 -6 0 -18 7 -27 15 -8 8 -19 15
-25 15 -6 0 -11 7 -11 16 0 14 2 15 18 3 15 -13 16 -12 3 3 -7 10 -11 24 -8
32 3 8 3 16 0 19 -8 9 -32 -17 -25 -28 2 -5 -1 -5 -8 2 -10 10 -10 18 0 42 7
17 16 31 20 31 4 0 33 -33 65 -72z m-697 -158 c17 -11 32 -21 32 -24 0 -2 -49
-54 -110 -115 -60 -61 -110 -119 -110 -129 0 -9 -8 -22 -19 -29 -15 -9 -25 -7
-55 13 -34 23 -47 44 -27 44 4 0 61 59 125 130 64 72 120 130 124 130 4 0 22
-9 40 -20z m933 -211 c144 -132 263 -299 245 -345 -6 -15 -10 -13 -30 17 -27
39 -91 98 -127 117 -13 7 -43 30 -66 51 -23 22 -55 47 -72 57 -23 13 -34 32
-50 83 -21 67 -27 122 -14 135 4 4 10 -1 14 -11 4 -10 49 -57 100 -104z
m-6498 84 l38 -6 -91 -59 c-50 -32 -96 -56 -101 -53 -5 4 -9 0 -9 -7 0 -9 -3
-9 -10 2 -5 8 -10 12 -11 8 -1 -5 -3 -12 -4 -18 -1 -5 -3 -13 -4 -17 -1 -5 -5
-2 -10 6 -7 10 -20 7 -67 -18 -66 -35 -86 -38 -104 -16 -7 9 -19 14 -26 11
-25 -10 -25 13 1 30 29 19 33 40 8 48 -10 3 -3 4 15 2 18 -1 35 1 38 6 3 4 -1
9 -8 9 -7 1 1 5 17 10 21 5 14 6 -25 3 -70 -7 -120 -22 -120 -37 0 -8 -3 -7
-9 2 -6 9 -21 11 -52 7 -43 -7 -44 -6 -14 7 17 8 50 17 75 20 25 4 56 9 70 12
80 16 157 29 245 40 55 7 105 13 110 13 6 1 27 -1 48 -5z m4106 -54 c24 -5 64
-10 87 -11 34 0 50 -7 76 -32 18 -18 56 -49 85 -71 l52 -39 -43 -46 c-23 -25
-51 -58 -60 -73 -10 -15 -25 -27 -33 -27 -8 0 -44 -28 -79 -62 -35 -33 -64
-56 -64 -50 0 6 8 16 18 21 9 6 12 11 6 11 -6 0 -17 -7 -24 -15 -7 -9 -19 -14
-27 -11 -8 3 -11 1 -8 -4 3 -6 -2 -10 -12 -10 -19 -1 -56 -24 -49 -31 3 -2
-17 -2 -44 -1 -47 4 -48 4 -32 25 10 11 28 32 40 45 21 22 22 28 11 48 -7 13
-21 24 -31 24 -11 0 -16 5 -13 10 10 16 45 12 45 -5 0 -8 7 -15 15 -15 9 0 12
6 9 15 -4 11 1 15 17 15 23 0 59 26 59 42 0 5 -6 8 -12 7 -7 -2 -31 3 -53 9
-22 6 -49 10 -60 9 -14 -1 -20 4 -19 15 2 17 -46 38 -84 38 -7 0 -15 7 -18 15
-4 8 -18 15 -32 15 -14 0 -23 3 -19 6 3 4 -4 15 -16 24 -18 15 -19 19 -7 23
34 12 90 15 95 6 10 -14 25 -11 25 7 0 8 5 12 10 9 6 -3 10 -1 10 5 0 6 4 9 8
6 4 -2 14 -1 22 5 12 7 11 9 -4 9 -11 0 -16 3 -13 7 4 3 -1 12 -11 19 -14 11
-14 13 -2 14 13 0 13 1 0 11 -18 12 108 4 179 -12z m1404 -123 c18 -7 44 -18
60 -24 15 -7 27 -18 27 -27 0 -8 8 -15 18 -15 14 0 15 -2 2 -10 -9 -6 -11 -10
-3 -10 9 0 10 -7 4 -22 -5 -13 -14 -23 -22 -23 -14 0 -19 -7 -19 -26 0 -5 4
-8 9 -5 5 3 14 0 20 -8 10 -12 6 -14 -23 -11 -43 4 -44 5 -144 89 -54 46 -79
73 -73 79 7 7 16 5 27 -4 12 -9 15 -10 10 -1 -7 12 13 16 59 13 17 -2 17 0 5
8 -23 16 5 14 43 -3z m465 -64 l20 -27 -29 -35 c-16 -19 -29 -42 -29 -52 0
-11 -7 -18 -18 -18 -10 0 -32 -17 -49 -37 -17 -21 -47 -56 -66 -78 l-36 -40
-21 21 -22 22 54 63 c100 119 109 133 102 167 -5 26 -3 31 17 35 48 9 58 6 77
-21z m436 -474 c-4 -7 -31 -44 -59 -83 -87 -118 -97 -135 -91 -151 4 -10 -1
-18 -14 -21 -10 -3 -62 -63 -115 -134 -69 -94 -95 -136 -95 -157 0 -22 -6 -31
-22 -36 -13 -3 -49 -42 -83 -88 -33 -46 -75 -100 -93 -120 -22 -25 -36 -51
-39 -78 -4 -30 -10 -40 -24 -40 -10 0 -34 -17 -53 -37 -33 -36 -39 -38 -91
-36 -30 1 -62 6 -70 10 -19 11 -11 23 113 173 46 56 85 107 88 114 3 7 0 24
-5 39 -12 30 -4 38 55 55 34 10 53 28 122 114 76 96 81 105 76 139 -7 39 -7
39 58 53 34 8 192 200 185 226 -3 12 4 22 21 29 13 7 27 10 29 7 2 -2 28 4 56
15 63 22 60 22 51 7z"/>
<path d="M15855 6025 c-60 -8 -132 -18 -160 -24 -27 -6 -72 -10 -99 -10 -28 0
-52 -5 -56 -11 -5 -7 -13 -9 -20 -5 -8 5 -11 4 -6 -3 8 -14 47 -11 39 3 -4 5
2 2 13 -7 15 -13 44 -17 124 -20 58 -2 175 -12 262 -23 181 -22 225 -17 246
28 7 15 18 27 25 27 6 0 -6 12 -28 27 -36 25 -50 28 -135 29 -52 1 -144 -4
-205 -11z"/>
<path d="M11303 5802 c-13 -2 -23 -8 -23 -13 0 -5 -7 -9 -15 -9 -8 0 -15 -4
-15 -9 0 -4 -12 -7 -27 -5 -17 2 -20 1 -8 -2 11 -3 32 -19 47 -35 15 -16 36
-29 47 -29 12 0 21 -4 21 -10 0 -5 5 -10 12 -10 6 0 23 -13 37 -28 25 -28 58
-47 74 -44 4 1 7 -3 7 -9 0 -6 9 -9 20 -6 11 3 20 2 20 -2 0 -20 224 -55 450
-71 85 -7 211 -20 280 -31 69 -11 217 -33 330 -49 113 -17 221 -35 240 -42 65
-21 130 -70 182 -137 29 -37 136 -147 238 -244 189 -179 272 -267 348 -366 44
-58 112 -131 122 -131 16 0 145 140 175 190 19 32 35 60 35 63 0 4 -14 20 -30
37 -32 33 -66 36 -64 7 2 -23 0 -22 -36 16 -46 49 -108 157 -113 199 -10 80
-79 153 -249 264 -73 48 -171 112 -218 143 -47 31 -98 68 -114 83 -16 16 -35
28 -42 28 -7 0 -17 6 -21 13 -4 7 -24 23 -43 35 -47 29 -83 61 -105 95 -10 16
-29 33 -42 38 -20 7 -22 11 -11 28 7 11 9 23 6 26 -12 12 -162 19 -154 7 3 -6
1 -14 -5 -18 -6 -3 -15 -1 -19 6 -7 11 -27 11 -112 0 -56 -7 -127 -14 -156
-16 -30 -2 -60 -8 -67 -14 -7 -6 -20 -8 -29 -4 -9 3 -30 1 -46 -6 -16 -7 -38
-9 -47 -5 -10 4 -29 9 -43 11 -14 1 -50 6 -80 9 -30 4 -69 13 -87 21 -38 17
-53 18 -53 2 0 -6 -6 -4 -13 6 -12 17 -37 18 -298 20 -156 0 -294 0 -306 -2z"/>
<path d="M17667 5229 c-9 -6 -17 -17 -17 -24 0 -8 -7 -15 -15 -15 -8 0 -15 -7
-15 -16 0 -8 -13 -43 -29 -77 -52 -111 -80 -176 -87 -203 -4 -14 -17 -48 -30
-75 -13 -27 -24 -52 -24 -57 0 -4 -9 -25 -20 -47 -11 -22 -20 -47 -20 -57 0
-9 -4 -20 -10 -23 -5 -3 -10 -13 -10 -22 0 -9 -13 -44 -29 -77 -16 -34 -41
-92 -56 -131 -15 -38 -33 -77 -39 -85 -17 -20 -56 -98 -56 -110 0 -6 -15 -43
-34 -83 -53 -111 -146 -323 -146 -331 0 -4 -11 -32 -25 -62 -14 -30 -25 -63
-25 -72 0 -10 -4 -22 -9 -27 -12 -13 -81 -147 -81 -159 0 -4 -16 -43 -36 -85
-20 -42 -37 -81 -38 -88 -1 -6 -9 -26 -18 -45 -9 -18 -28 -60 -43 -93 -14 -33
-33 -73 -41 -88 -8 -16 -14 -35 -14 -43 0 -8 -4 -22 -10 -32 -14 -25 -70 -151
-70 -158 0 -4 -16 -40 -35 -81 -19 -41 -35 -77 -35 -80 0 -3 -18 -43 -41 -90
-23 -47 -42 -91 -43 -97 -1 -6 -14 -33 -29 -58 -15 -26 -27 -52 -27 -58 0 -6
-5 -8 -10 -5 -6 3 -8 16 -6 28 11 53 46 161 59 181 8 11 16 32 19 46 3 14 60
159 127 323 67 164 121 305 121 313 0 8 4 14 9 14 5 0 11 10 14 23 7 31 70
194 95 244 11 24 26 65 33 93 7 27 16 50 21 50 4 0 8 13 8 29 0 17 5 33 10 36
6 4 8 15 5 25 -3 10 1 25 10 34 10 10 14 24 10 36 -4 12 -1 27 5 35 8 10 8 19
1 33 -11 21 -3 119 10 128 5 2 4 16 -1 29 -6 17 -6 27 3 32 7 4 13 15 14 23 9
60 27 127 39 144 8 11 14 28 14 38 0 10 5 18 10 18 6 0 10 14 10 31 0 51 -22
22 -99 -134 -58 -119 -105 -220 -256 -562 -14 -31 -90 -202 -288 -650 -63
-143 -118 -271 -122 -284 -8 -27 -66 -156 -94 -211 -10 -19 -22 -48 -25 -64
-5 -22 -10 -26 -19 -17 -8 8 -3 27 21 74 18 34 32 67 32 73 0 10 22 61 97 224
58 126 125 292 119 297 -1 2 -29 -57 -61 -129 -32 -73 -62 -137 -67 -142 -4
-6 -8 -16 -8 -22 0 -7 -29 -74 -65 -149 -36 -75 -65 -142 -65 -149 0 -16 -35
-98 -47 -110 -4 -4 -8 -11 -8 -14 0 -22 -31 -100 -47 -118 -10 -11 -18 -29
-18 -40 0 -17 -32 -89 -59 -134 -4 -8 -17 -41 -26 -72 -11 -35 -27 -64 -41
-73 -14 -9 -21 -21 -17 -33 7 -28 -36 -120 -59 -128 -15 -4 -18 -12 -14 -30 7
-28 -21 -101 -47 -123 -40 -33 -71 27 -44 85 9 18 28 41 42 50 21 14 25 24 25
63 0 38 6 53 29 79 17 17 34 32 39 32 5 0 7 22 4 48 -4 45 -2 50 35 83 35 31
39 40 35 75 -2 33 2 45 33 77 27 30 35 47 35 75 0 30 8 46 36 75 31 31 36 42
30 68 -5 27 0 36 35 70 l40 39 -15 54 c-20 68 -20 96 -1 96 9 0 20 11 25 25 5
14 14 25 20 25 5 0 10 7 10 15 0 8 3 14 8 14 24 -4 33 3 27 21 -5 17 -2 20 21
20 24 0 26 3 20 28 -15 68 -16 76 -10 64 8 -18 35 5 27 24 -4 10 3 14 22 14
28 0 29 5 9 73 -4 12 0 17 16 17 17 0 20 4 15 20 -5 16 -2 20 16 20 20 0 21 4
15 39 -4 29 -2 40 9 45 8 3 15 12 15 21 0 8 9 15 20 15 18 0 20 4 14 34 -6 35
-2 44 39 86 14 13 17 26 12 48 -5 25 -1 34 25 56 20 16 31 34 30 48 -3 38 -1
46 19 65 11 10 24 38 30 61 5 24 16 51 24 60 9 9 18 34 22 55 4 21 15 43 25
50 9 6 20 30 23 52 4 22 13 45 21 51 8 5 18 23 22 40 3 16 15 43 25 59 10 17
21 50 25 72 3 23 13 44 20 47 11 4 13 20 9 71 -3 36 -2 65 3 65 5 0 15 11 22
25 7 14 19 25 26 25 22 0 44 30 44 60 0 15 6 30 14 33 7 3 17 22 20 43 4 20
14 43 22 51 8 8 14 27 14 42 0 16 6 34 14 40 8 7 18 25 21 41 3 16 13 34 20
40 8 7 17 28 21 49 4 20 12 43 19 51 8 8 17 27 20 43 4 15 11 30 16 33 5 3 9
11 9 17 0 7 -4 6 -10 -3 -8 -13 -10 -12 -10 3 0 9 5 17 10 17 6 0 10 5 10 12
0 15 49 78 61 78 5 0 9 -9 9 -20 0 -24 25 -26 38 -3 5 9 18 17 28 18 32 2 72
45 94 101 13 30 26 54 30 54 4 0 10 12 13 28 3 15 8 34 12 43 5 14 -5 19 -65
29 -94 16 -110 8 -140 -67 -21 -50 -102 -223 -131 -275 -5 -10 -43 -84 -85
-165 -42 -82 -95 -184 -119 -228 -23 -44 -111 -215 -195 -380 -84 -165 -181
-354 -215 -420 -138 -268 -256 -525 -585 -1270 -92 -209 -218 -492 -279 -629
-62 -137 -111 -255 -109 -264 2 -8 12 -17 23 -19 58 -11 107 -15 130 -9 24 6
26 10 20 44 -5 30 -1 45 17 72 27 40 51 48 74 25 27 -27 -8 -125 -45 -125 -6
0 -11 -4 -11 -8 0 -16 35 -39 133 -87 105 -52 133 -77 143 -130 7 -41 -1 -68
-87 -272 -102 -240 -115 -257 -329 -423 -45 -34 -111 -56 -219 -70 -109 -15
-310 -8 -421 14 -229 46 -512 98 -634 116 -76 11 -205 34 -287 50 -225 45
-551 105 -774 144 -110 19 -306 54 -435 79 -129 24 -269 50 -310 57 -41 7 -91
16 -110 21 -19 4 -53 11 -75 13 -22 3 -65 10 -95 15 -130 23 -307 53 -335 56
-16 2 -54 9 -83 15 -30 7 -67 10 -84 8 -17 -3 -56 1 -87 8 -31 8 -90 14 -132
14 -42 0 -98 7 -125 15 -27 8 -71 15 -97 15 -55 0 -314 54 -367 77 -43 18 -59
21 -180 28 -122 7 -215 22 -250 40 -15 8 -30 12 -32 9 -3 -2 -26 4 -51 15 -28
12 -80 22 -138 25 -96 6 -239 34 -239 47 0 4 -15 10 -34 13 -19 4 -36 11 -38
17 -6 17 -175 54 -453 99 -27 4 -113 20 -190 34 -266 52 -490 88 -550 91 -33
2 -60 4 -60 5 0 2 -11 4 -25 6 -48 6 -186 25 -250 35 -36 5 -76 11 -90 13
-125 17 -188 29 -202 37 -10 5 -39 9 -65 9 -27 0 -87 7 -134 15 -48 8 -95 14
-105 13 -11 -1 -37 3 -59 9 -67 18 -211 43 -251 43 -53 0 -325 40 -346 51 -24
13 -51 11 -42 -3 5 -8 2 -9 -12 -3 -10 4 -53 11 -94 16 -155 17 -237 28 -305
39 -38 6 -90 14 -115 16 -25 3 -74 9 -110 14 -36 5 -87 12 -115 15 -27 4 -175
26 -327 51 -152 24 -295 44 -318 44 -76 0 -44 -33 85 -86 38 -15 293 -107 345
-124 129 -42 588 -213 891 -333 308 -123 490 -192 742 -283 219 -79 876 -311
932 -329 63 -20 290 -102 405 -147 58 -22 116 -44 130 -49 14 -4 68 -24 120
-44 52 -20 120 -45 150 -55 30 -10 114 -39 185 -65 272 -97 707 -236 796 -254
19 -4 42 -12 50 -16 7 -5 72 -10 144 -11 71 -1 146 -5 165 -9 87 -18 119 -25
180 -39 36 -9 124 -25 195 -37 72 -11 175 -32 230 -46 144 -35 244 -59 376
-88 l116 -25 3457 0 c1901 0 3456 3 3456 8 0 4 -11 16 -25 26 -14 10 -25 28
-25 40 0 34 -42 125 -61 131 -9 3 -22 18 -28 33 -16 36 -42 66 -64 75 -10 4
-16 11 -12 17 3 5 -3 27 -14 48 -11 22 -18 42 -15 45 3 3 -7 12 -23 20 -15 8
-37 24 -47 36 -10 11 -22 18 -26 16 -4 -3 -11 3 -15 13 -6 16 -7 16 -20 -1
-13 -17 -15 -16 -26 22 -6 22 -15 38 -19 36 -4 -2 -19 33 -34 79 -19 60 -32
85 -45 89 -14 3 -21 18 -26 53 -9 56 -20 75 -41 67 -14 -5 -19 16 -14 60 1 10
-6 27 -16 38 -14 16 -28 19 -78 15 -34 -2 -44 -1 -23 1 50 6 52 33 2 33 -39 0
-44 6 -48 65 -3 50 -38 91 -65 76 -9 -5 -15 -13 -13 -18 6 -11 -41 -20 -106
-22 -40 -1 -52 -5 -56 -18 -4 -17 -5 -17 -12 1 -5 11 -3 26 3 37 16 26 15 34
-3 19 -18 -15 -17 -15 -35 30 -20 49 -33 60 -75 60 -33 0 -36 -2 -30 -22 3
-13 3 -18 -2 -13 -4 6 -20 16 -35 24 -36 19 -35 31 2 31 17 0 30 5 30 10 0 6
16 10 36 10 34 0 64 18 64 38 0 13 -56 35 -69 27 -6 -3 -11 -15 -11 -25 0 -19
-10 -25 -71 -35 -30 -6 -41 -2 -62 17 -14 12 -40 35 -57 50 -19 17 -42 28 -60
28 -17 0 -30 5 -30 13 -1 6 -8 0 -16 -15 -13 -25 -25 -33 -46 -29 -4 0 -10
-10 -14 -24 -7 -26 -44 -36 -44 -12 0 8 -9 24 -20 37 -16 18 -18 25 -8 32 8 5
-6 8 -36 6 -45 -2 -49 0 -61 29 -18 42 -46 73 -67 73 -22 0 -24 26 -3 34 8 3
15 13 14 23 0 11 -3 13 -6 6 -2 -7 -12 -13 -20 -13 -14 0 -14 3 1 24 8 14 18
43 22 66 6 36 4 43 -22 65 -16 14 -35 23 -42 20 -8 -3 -22 -5 -33 -5 -14 0
-22 -11 -30 -45 -10 -38 -15 -45 -36 -45 -22 0 -24 -2 -13 -15 17 -20 -5 -47
-34 -43 -16 2 -22 11 -24 39 -2 27 -8 38 -24 42 -11 3 -18 12 -15 19 2 7 0 24
-5 37 -4 13 -5 29 0 35 4 6 7 22 5 36 -2 14 -5 41 -7 60 -2 19 -4 39 -5 44 0
5 -8 3 -16 -4 -18 -15 -21 -100 -4 -100 7 0 1 -11 -12 -24 -34 -34 -63 -77
-71 -106 -5 -18 -6 -13 -5 18 2 26 -2 42 -9 42 -6 0 -17 14 -25 31 -11 29 -10
37 19 93 18 33 32 71 32 84 0 12 4 30 9 40 19 36 39 88 46 119 4 18 10 33 15
33 9 0 24 25 55 90 9 19 21 43 26 53 6 12 5 17 -3 18 -7 0 -3 5 10 11 12 6 25
23 29 37 3 14 11 37 18 51 16 32 35 92 35 110 0 17 52 124 62 128 4 2 8 11 8
21 0 9 4 21 9 27 4 5 18 43 31 84 12 41 35 103 51 137 16 34 29 66 29 71 0 5
7 15 15 22 8 7 15 25 15 40 0 15 7 33 15 40 8 7 15 18 15 25 0 7 13 39 30 71
16 32 30 62 30 66 0 7 19 49 123 268 30 64 65 140 78 170 13 30 25 57 28 60 9
7 76 151 76 161 0 4 6 14 13 21 6 6 12 15 12 19 0 3 9 27 20 53 12 25 21 49
22 53 0 5 7 17 14 28 21 30 16 43 -6 15 -11 -14 -20 -28 -20 -33 0 -4 -11 -24
-24 -45 -14 -20 -28 -50 -32 -65 -5 -22 -9 -26 -16 -15 -6 9 -7 5 -3 -11 4
-13 3 -21 -2 -18 -4 3 -17 -15 -28 -39 -11 -24 -23 -44 -27 -44 -5 0 -8 -6 -8
-14 0 -8 -4 -17 -9 -21 -22 -13 107 391 264 830 52 143 97 273 100 288 6 21 1
37 -21 70 -33 47 -50 67 -59 67 -8 0 -55 -101 -55 -118 0 -8 -9 -26 -20 -42
-11 -15 -17 -30 -13 -33 5 -6 -20 -79 -55 -157 -8 -19 -30 -69 -47 -111 -17
-42 -38 -84 -47 -92 -9 -9 -19 -36 -22 -62 -4 -25 -11 -45 -16 -45 -5 0 -16
-15 -25 -34 -9 -19 -23 -37 -31 -40 -8 -3 -11 -12 -7 -22 4 -12 -3 -25 -23
-41 -16 -12 -23 -23 -16 -23 10 0 10 -4 0 -22 -7 -13 -19 -28 -27 -34 -8 -6
-11 -16 -7 -22 4 -7 4 -12 -1 -12 -4 0 -13 -10 -19 -23 -6 -12 -23 -44 -39
-72 -16 -27 -36 -70 -46 -95 -9 -25 -38 -94 -64 -155 -26 -60 -76 -182 -112
-270 -35 -88 -84 -202 -109 -254 -24 -51 -44 -97 -44 -102 0 -5 -4 -17 -10
-27 -5 -9 -19 -39 -31 -67 -12 -27 -24 -44 -27 -37 -2 8 3 30 11 50 29 67 127
346 127 359 0 7 4 13 8 13 5 0 19 30 32 68 12 37 31 85 40 107 10 22 34 83 54
135 21 52 46 115 58 140 11 25 23 54 28 65 4 11 21 56 39 100 17 44 31 92 31
108 0 15 4 35 9 45 5 9 13 28 18 42 12 31 31 75 48 115 25 59 108 271 122 310
7 22 18 49 24 59 6 11 20 44 30 74 10 30 23 60 27 66 16 21 62 146 62 169 0
13 5 28 11 34 5 5 17 37 25 69 31 119 29 144 -9 123z"/>
<path d="M15345 4684 c-24 -24 -18 -32 28 -38 51 -7 265 -35 327 -42 39 -5 48
-3 69 20 14 14 23 26 20 27 -2 0 -31 2 -64 4 -33 1 -103 10 -155 18 -155 25
-208 28 -225 11z"/>
<path d="M15195 4484 c-25 -25 -13 -38 41 -46 225 -32 353 -48 374 -48 21 0
70 37 70 52 0 3 -35 8 -77 11 -43 3 -130 13 -193 21 -63 9 -134 18 -157 21
-30 4 -46 1 -58 -11z"/>
<path d="M16065 4384 c-17 -13 -40 -15 -137 -11 -111 6 -118 5 -129 -14 -6
-12 -9 -22 -7 -24 2 -2 44 -10 93 -18 50 -9 98 -18 108 -22 20 -8 97 62 97 89
0 19 0 19 -25 0z"/>
<path d="M15036 4266 c-12 -19 -13 -27 -3 -33 6 -4 112 -22 235 -39 l223 -30
33 22 c19 13 39 38 45 55 11 32 11 32 -9 14 -25 -23 -57 -22 -303 10 -105 14
-194 25 -198 25 -4 0 -14 -11 -23 -24z"/>
<path d="M15968 4195 c-16 -25 -35 -48 -44 -52 -10 -3 -69 -1 -133 4 -122 12
-141 8 -141 -28 0 -21 -1 -20 145 -42 96 -15 100 -15 127 5 33 23 81 111 76
139 -2 15 -9 10 -30 -26z"/>
<path d="M15456 4088 c-28 -57 -61 -88 -95 -88 -31 0 -158 17 -355 47 l-109
16 -19 -23 c-21 -26 -23 -39 -5 -45 6 -2 118 -18 247 -34 223 -28 236 -29 264
-13 33 19 100 132 94 159 -3 13 -9 8 -22 -19z"/>
<path d="M15847 3984 c-13 -22 -29 -49 -35 -61 -18 -33 -39 -35 -167 -18 -127
16 -145 13 -145 -31 0 -28 6 -30 140 -49 141 -19 159 -11 215 97 30 58 37 80
28 89 -8 8 -17 2 -36 -27z"/>
<path d="M15294 3830 c-22 -33 -47 -62 -56 -65 -14 -5 -373 41 -485 61 -28 5
-33 2 -47 -25 -15 -28 -15 -31 1 -40 10 -5 95 -18 188 -30 94 -12 202 -25 241
-31 80 -11 124 -2 139 26 6 10 25 44 43 75 57 100 37 124 -24 29z"/>
<path d="M15723 3749 c-11 -19 -31 -53 -43 -76 -22 -40 -27 -43 -64 -43 -23 0
-86 7 -141 15 -55 8 -105 15 -112 15 -17 0 -37 -40 -26 -51 5 -5 56 -15 113
-24 142 -21 150 -24 149 -38 0 -6 -24 -50 -52 -97 -44 -72 -57 -86 -81 -88
-25 -3 -188 19 -252 34 -29 7 -61 -40 -43 -62 7 -8 19 -14 28 -13 9 1 23 -1
31 -4 40 -16 247 -38 272 -28 32 12 135 198 118 215 -20 20 -11 47 20 57 39
14 127 171 113 202 -9 19 -11 18 -30 -14z"/>
<path d="M15151 3603 c-23 -40 -49 -77 -57 -84 -17 -14 -132 -4 -354 31 -156
24 -152 24 -169 34 -18 11 -52 -31 -48 -59 2 -20 20 -26 127 -40 25 -3 115
-15 200 -27 85 -12 177 -22 203 -22 55 -1 62 5 122 116 30 56 35 73 28 95 -9
27 -10 26 -52 -44z"/>
<path d="M14473 3468 c-47 -53 -144 -201 -139 -213 3 -8 24 -18 48 -24 42 -10
42 -10 8 -9 -53 0 -60 -1 -60 -12 0 -13 63 -13 93 1 25 11 67 7 369 -38 59 -8
119 -12 132 -9 18 4 40 32 81 99 46 79 54 98 49 125 -4 18 -9 32 -13 32 -3 -1
-28 -39 -56 -86 -27 -47 -57 -90 -67 -95 -18 -10 -320 28 -326 41 -1 3 -16 4
-33 2 -21 -3 -29 -1 -27 8 2 7 -8 16 -22 20 -29 8 -52 2 -44 -11 5 -9 -17 -6
-69 8 -9 2 -15 9 -12 14 4 5 14 5 25 -1 24 -13 30 -13 30 0 0 6 -9 10 -20 10
-11 0 -20 2 -20 6 0 12 90 143 102 147 7 3 8 6 2 6 -6 1 -20 -9 -31 -21z"/>
<path d="M15420 3230 c-12 -25 -38 -71 -58 -104 l-35 -58 -61 6 c-116 12 -221
29 -232 37 -6 5 -17 -4 -28 -22 -25 -42 -10 -55 79 -68 39 -5 107 -15 153 -22
57 -8 89 -9 105 -2 13 6 45 52 79 114 48 88 55 106 44 119 -7 8 -16 22 -18 30
-3 10 -13 -1 -28 -30z"/>
<path d="M14859 3130 c-9 -14 -32 -52 -52 -86 -20 -33 -45 -68 -56 -78 -22
-20 -52 -19 -186 3 -38 7 -137 22 -220 34 -130 20 -150 25 -147 40 4 26 -3 21
-32 -23 -22 -34 -24 -43 -14 -59 14 -23 48 -35 48 -18 0 9 2 9 8 1 7 -11 93
-27 311 -59 110 -16 191 -19 228 -9 30 8 158 210 145 227 -6 7 -12 21 -14 32
-3 19 -5 18 -19 -5z"/>
<path d="M15221 2880 c-35 -56 -69 -104 -77 -107 -8 -3 -69 2 -137 11 -67 9
-131 17 -141 19 -27 3 -55 -46 -40 -70 5 -9 19 -18 30 -19 120 -19 221 -38
228 -44 5 -5 0 -21 -11 -37 -10 -15 -34 -57 -52 -93 -19 -36 -41 -71 -50 -78
-19 -15 -181 -7 -248 13 -49 15 -66 7 -82 -38 -9 -22 -7 -31 8 -46 17 -17 106
-42 204 -56 43 -7 46 -19 15 -62 -13 -17 -34 -53 -48 -80 -40 -82 -49 -85
-187 -72 -65 6 -123 16 -130 21 -22 18 -65 -40 -61 -81 4 -45 28 -57 151 -82
l89 -17 59 31 c55 30 61 38 124 149 65 114 66 117 51 146 -14 27 -14 31 2 44
9 7 33 21 53 30 26 12 44 32 70 79 97 179 90 161 73 187 -20 30 -12 52 20 52
37 0 60 26 121 136 54 97 55 101 42 133 l-14 33 -62 -102z"/>
<path d="M14621 2756 c-54 -81 -68 -96 -90 -95 -33 0 -126 12 -261 33 -302 46
-281 44 -301 22 -34 -35 -22 -86 20 -86 15 0 31 -4 37 -9 5 -5 41 -14 79 -20
39 -5 117 -17 174 -26 137 -21 227 -22 271 -3 27 12 49 37 99 118 62 99 63
103 50 132 l-14 29 -64 -95z"/>
<path d="M14463 2504 c-11 -16 -34 -54 -51 -85 -53 -93 -51 -93 -183 -74 -63
8 -139 20 -169 25 -30 6 -104 19 -165 30 l-110 19 -23 -26 c-30 -33 -26 -73 8
-89 14 -7 70 -20 125 -29 55 -9 118 -20 140 -25 22 -5 79 -14 127 -20 73 -9
97 -8 141 5 30 9 61 21 69 28 21 16 138 203 138 220 0 7 -6 21 -13 31 -13 18
-15 17 -34 -10z"/>
<path d="M1325 2329 c-16 -6 -50 -20 -75 -31 -24 -12 -60 -25 -80 -29 -19 -5
-48 -11 -65 -15 -16 -4 -36 -12 -44 -18 -7 -6 -19 -11 -25 -11 -31 -1 -84 -20
-117 -42 -42 -28 -64 -72 -60 -121 1 -18 -4 -44 -13 -57 -9 -13 -16 -27 -16
-30 0 -8 79 -6 98 4 25 13 60 27 117 47 28 10 59 28 70 39 26 28 130 85 153
85 10 0 27 7 38 15 10 8 29 15 42 15 12 0 25 7 28 15 4 8 16 15 28 15 32 0
141 46 140 59 -1 6 -2 15 -2 20 -1 5 -18 15 -37 21 -19 6 -35 16 -35 21 0 12
-106 10 -145 -2z"/>
<path d="M14247 2168 c-33 -54 -81 -134 -91 -153 -17 -29 -70 -109 -77 -115
-3 -3 -9 -15 -13 -27 -13 -42 -51 -56 -140 -50 -45 3 -114 13 -154 21 -40 9
-86 16 -101 16 -15 0 -54 7 -86 16 -33 8 -68 17 -78 19 -9 2 -22 7 -28 11 -14
8 -69 -45 -69 -68 0 -10 10 -22 23 -27 28 -11 516 -91 552 -91 37 0 75 42 158
176 38 60 88 140 112 178 33 51 42 73 36 89 -11 30 -28 32 -44 5z"/>
<path d="M14675 1932 c-6 -4 -21 -29 -35 -57 -30 -60 -67 -117 -83 -127 -19
-12 -97 -9 -177 7 -41 9 -81 17 -89 18 -14 2 -61 -56 -61 -75 0 -5 15 -15 33
-22 48 -21 239 -50 269 -43 25 7 78 53 78 69 0 3 23 46 51 94 32 55 49 96 47
112 -3 27 -16 36 -33 24z"/>
<path d="M0 435 l0 -435 552 0 c487 0 557 2 595 16 43 17 43 17 42 63 -2 42
-7 51 -56 98 -29 29 -57 53 -62 53 -5 0 -11 4 -13 8 -3 9 -162 114 -188 125
-8 4 -33 18 -55 31 -22 14 -78 46 -125 72 -47 26 -101 57 -120 69 -19 12 -109
66 -200 119 -190 112 -186 109 -265 157 -33 20 -70 41 -82 48 l-23 12 0 -436z"/>
<path d="M23972 548 c-7 -7 -12 -30 -12 -52 0 -54 -9 -86 -25 -86 -6 0 -20
-17 -31 -37 -10 -21 -29 -46 -41 -56 -13 -10 -23 -29 -23 -43 0 -13 -4 -24 -8
-24 -11 0 -34 -68 -27 -80 9 -14 -13 -50 -30 -50 -8 0 -15 -7 -15 -15 0 -8 5
-15 12 -15 6 0 8 -3 4 -8 -8 -7 -13 -8 -42 -11 -14 -1 -14 -4 -3 -17 10 -13
10 -17 -2 -25 -8 -5 -18 -9 -24 -9 -5 0 -3 -5 5 -10 8 -5 77 -10 153 -10 l137
0 0 274 c0 151 -4 277 -8 280 -5 3 -14 0 -20 -6z"/>
</g>
</svg>
