<?xml version="1.0" standalone="no"?>
<!DOCTYPE svg PUBLIC "-//W3C//DTD SVG 20010904//EN"
 "http://www.w3.org/TR/2001/REC-SVG-20010904/DTD/svg10.dtd">
<svg version="1.0" xmlns="http://www.w3.org/2000/svg"
 width="400.000000pt" height="240.000000pt" viewBox="0 0 400.000000 240.000000"
 preserveAspectRatio="xMidYMid meet">
<metadata>
Created by potrace 1.16, written by Peter Selinger 2001-2019
</metadata>
<g transform="translate(0.000000,240.000000) scale(0.100000,-0.100000)"
fill="#000000" stroke="none">
<path d="M0 1200 l0 -1200 40 0 c47 0 49 8 20 90 -26 75 -26 159 0 193 11 14
20 33 20 42 0 20 66 125 79 125 5 0 13 9 16 20 4 11 15 20 26 20 11 0 22 7 25
15 4 8 9 13 13 10 4 -2 25 12 46 32 33 31 42 35 74 29 25 -4 31 -2 21 4 -13 8
-12 10 3 10 10 0 28 -7 41 -15 25 -16 25 -23 0 -103 -5 -19 0 -30 25 -52 17
-16 31 -28 31 -27 0 4 153 -137 211 -195 51 -50 119 -98 119 -83 0 4 7 -1 16
-9 13 -14 34 -20 55 -18 4 1 26 -16 50 -36 63 -54 39 -16 -43 67 -27 27 -48
56 -48 65 0 21 16 20 32 -2 25 -36 41 -36 22 -1 -13 25 -260 279 -271 279 -2
0 -22 20 -45 45 -29 31 -51 45 -69 45 -28 0 -69 37 -69 63 0 9 15 27 33 40 98
74 235 112 454 127 83 5 175 12 205 16 l53 6 140 -112 c77 -62 172 -142 211
-179 39 -36 104 -92 145 -123 82 -63 128 -100 173 -140 l31 -27 -30 -11 c-16
-7 -113 -23 -214 -36 -102 -13 -220 -33 -264 -44 -82 -20 -203 -75 -247 -110
l-25 -20 348 2 347 3 23 29 c28 34 61 30 71 -9 l6 -25 940 0 c885 0 939 1 944
18 3 9 35 127 71 262 37 134 71 253 77 264 6 11 12 36 14 55 4 43 32 134 33
107 1 -11 4 -17 7 -14 3 4 7 44 10 90 l4 83 -26 -80 c-14 -44 -37 -118 -51
-165 -14 -47 -32 -90 -39 -96 -8 -6 -14 -16 -14 -22 0 -6 -5 -23 -12 -37 -11
-24 -13 -25 -19 -8 -6 16 -8 15 -17 -7 -6 -14 -11 -19 -11 -12 -1 18 -19 15
-24 -5 -2 -10 -3 -7 -1 7 1 14 5 34 9 45 4 14 2 13 -9 -5 -13 -22 -15 -22 -16
-6 0 20 0 20 -15 0 -15 -18 -15 -18 -9 7 3 17 1 30 -7 35 -9 5 -10 2 -6 -9 3
-10 2 -17 -3 -17 -6 0 -10 10 -11 23 0 12 -3 17 -5 10 -6 -13 -35 -6 -46 10
-3 6 -2 22 3 36 13 33 -12 70 -69 98 -10 4 44 70 144 178 269 290 254 272 254
311 l0 36 -41 -54 c-46 -58 -151 -163 -180 -179 -15 -8 -19 -6 -19 6 0 9 -21
44 -47 78 -67 86 -123 205 -112 234 8 23 8 23 -18 6 l-26 -17 13 24 c7 14 24
37 37 51 14 15 21 29 16 32 -5 4 -41 11 -79 17 -38 6 -124 22 -192 36 -68 14
-126 23 -129 21 -5 -6 97 -37 124 -37 15 0 16 -2 3 -11 -12 -8 -11 -9 5 -5 11
3 33 -1 49 -9 15 -8 33 -12 39 -8 5 3 7 1 4 -4 -4 -6 10 -13 33 -17 22 -3 40
-10 40 -15 0 -5 -26 -3 -57 5 -32 8 -170 39 -308 70 -137 31 -253 58 -257 61
-12 7 -9 43 3 43 6 0 4 7 -5 15 -19 20 -46 9 -46 -19 0 -12 -9 -25 -22 -31
-12 -6 -23 -15 -25 -21 -3 -10 95 -46 165 -60 18 -4 35 -10 37 -14 3 -4 -12
-4 -33 1 -136 33 -192 43 -192 33 0 -5 7 -27 16 -50 15 -40 19 -43 82 -59 37
-9 119 -27 182 -40 334 -69 367 -81 353 -134 -5 -21 -10 -22 -44 -17 -37 6
-39 5 -54 -30 -20 -49 -13 -54 14 -8 16 27 25 33 34 25 8 -6 27 -11 44 -13 25
-2 29 -6 27 -25 -1 -13 1 -23 4 -23 7 0 40 67 62 124 15 41 24 25 10 -19 -11
-32 -10 -39 7 -58 11 -12 39 -56 63 -97 24 -41 56 -94 71 -116 l28 -42 -37
-48 c-79 -101 -398 -444 -413 -444 -3 0 23 84 58 187 35 104 68 199 73 213 4
14 24 70 44 124 20 55 35 101 33 102 -2 2 -41 -95 -87 -216 -45 -122 -84 -219
-87 -217 -2 2 10 40 26 83 16 43 43 120 60 169 18 50 40 108 51 131 12 26 15
46 9 55 -5 8 -9 10 -9 5 0 -4 -8 2 -18 15 -19 22 -19 22 -138 -277 l-119 -299
-45 3 -45 3 -20 -48 c-11 -26 -21 -51 -23 -55 -2 -4 1 -8 6 -8 5 0 17 18 27
39 20 46 41 58 65 36 9 -8 19 -12 23 -9 3 3 15 3 27 -1 18 -6 20 -12 14 -42
-5 -25 -3 -38 7 -44 11 -6 9 -13 -9 -32 -25 -26 -56 -26 -66 0 -5 11 -14 6
-40 -21 -47 -50 -72 -48 -376 29 -300 76 -668 165 -830 201 -63 13 -128 29
-145 34 -23 8 -32 7 -41 -4 -9 -13 -14 -13 -38 -1 -35 18 -65 55 -66 79 0 10
16 36 35 57 35 39 44 59 25 59 -14 0 -3 135 13 160 10 17 23 20 79 20 38 0 68
-3 68 -6 0 -4 -16 -28 -35 -54 -19 -26 -35 -49 -35 -51 0 -2 46 -4 103 -4 109
-1 139 -8 255 -61 59 -28 77 -32 94 -23 11 6 35 8 54 4 19 -3 43 -1 53 5 14 7
27 7 46 -2 30 -13 28 -34 -3 -30 -47 7 -18 -7 48 -23 39 -9 70 -20 70 -24 0
-18 -25 -29 -51 -24 -49 9 -32 -5 19 -16 26 -6 64 -15 84 -20 30 -7 40 -6 50
8 10 13 10 14 -1 4 -11 -9 -21 -9 -48 2 -18 8 -36 14 -38 15 -6 0 -7 8 -3 20
2 7 20 7 53 1 33 -6 53 -6 60 0 7 7 7 10 0 8 -17 -3 -75 13 -75 21 0 4 10 7
23 6 16 -1 23 5 25 22 2 12 8 20 13 17 5 -4 9 1 9 9 0 14 11 20 32 17 4 0 5 5
2 13 -3 8 3 20 13 27 10 8 18 20 19 27 2 29 5 32 27 32 24 0 47 17 47 35 0 5
-5 2 -11 -7 -10 -18 -39 -25 -39 -10 0 14 23 32 41 32 10 0 21 5 25 12 4 7 3
8 -4 4 -8 -5 -12 1 -12 14 0 15 5 20 14 17 14 -6 36 10 36 27 0 5 -6 2 -12 -7
-11 -15 -16 -15 -39 -3 -37 19 -63 47 -79 85 -12 29 -11 36 4 63 10 16 16 32
13 35 -3 2 -10 -5 -16 -16 -9 -16 -16 -19 -29 -11 -9 5 -73 23 -141 40 -94 22
-128 27 -143 19 -11 -6 -22 -8 -26 -5 -3 3 1 6 8 6 7 0 11 2 8 5 -6 6 -122
-19 -184 -40 -37 -12 -112 -23 -291 -42 -28 -3 -66 0 -84 6 -40 14 -43 10 -58
-70 -12 -57 -24 -73 -34 -46 -4 10 -6 10 -6 0 -1 -7 -7 -13 -14 -13 -7 0 -19
-6 -25 -12 -8 -8 -39 -13 -77 -13 -52 0 -65 3 -65 15 0 9 -3 11 -8 5 -4 -5
-23 -11 -42 -12 -26 -2 -31 0 -20 7 8 5 11 10 5 10 -5 -1 -19 -7 -29 -15 -11
-8 -31 -15 -44 -15 -20 0 -22 3 -13 14 8 10 9 16 1 21 -5 3 -10 2 -10 -2 0
-11 -59 -33 -89 -33 -12 0 -19 4 -16 10 4 6 -5 10 -21 10 -21 0 -24 3 -15 13
6 8 8 17 4 20 -3 4 0 13 7 22 10 12 9 16 -5 21 -9 4 -20 2 -24 -4 -11 -18 -56
-19 -56 -2 -1 37 -15 41 -61 14 -48 -28 -56 -24 -22 14 l23 25 -22 -6 c-18 -4
-23 -1 -23 14 0 11 -7 19 -16 19 -14 0 -13 5 5 36 12 19 21 37 21 39 0 8 -85
-28 -92 -39 -5 -7 -8 -5 -8 4 0 9 4 20 10 26 6 6 2 21 -11 42 -17 26 -28 32
-54 32 -18 0 -36 6 -39 13 -3 8 -10 6 -21 -8 -16 -19 -16 -18 -10 27 8 52 5
57 -20 31 -15 -14 -21 -15 -49 -4 -17 7 -39 13 -49 13 -14 -1 -15 3 -6 19 15
28 7 32 -37 20 -44 -12 -65 -1 -44 24 7 8 9 15 5 15 -4 0 -2 7 5 15 6 8 9 19
6 24 -8 12 24 52 36 45 4 -3 8 1 8 9 0 8 -14 20 -30 26 -33 11 -39 35 -15 67
8 10 15 27 15 37 0 10 4 16 8 13 5 -3 9 14 10 37 2 34 0 39 -9 24 -8 -14 -14
-16 -25 -6 -8 6 -14 17 -14 24 0 8 -3 15 -8 17 -10 4 -104 117 -126 152 -20
31 -15 41 25 51 22 5 29 1 46 -27 11 -19 28 -59 38 -89 9 -30 23 -60 30 -68
11 -12 13 -8 11 23 -3 29 -1 34 10 25 7 -6 18 -8 23 -4 6 3 8 0 5 -8 -3 -8 3
-22 12 -31 10 -10 16 -31 16 -49 -1 -18 5 -55 13 -82 8 -28 14 -79 14 -115 -1
-36 -1 -70 0 -76 1 -6 22 -10 48 -10 44 1 49 -2 72 -36 18 -29 31 -38 52 -38
15 0 30 4 33 9 8 12 -13 133 -26 148 -6 7 -8 29 -5 47 4 26 2 36 -11 41 -9 3
-18 1 -20 -4 -5 -15 -22 -14 -22 1 0 17 78 114 107 133 34 23 38 14 14 -34
-12 -22 -21 -43 -21 -46 0 -10 122 79 127 92 9 24 23 13 23 -16 0 -33 30 -61
66 -61 22 0 54 -38 54 -64 0 -8 -19 -45 -42 -82 -46 -76 -88 -162 -88 -181 0
-7 12 -15 28 -19 15 -4 36 -12 48 -19 17 -11 32 -11 85 2 76 17 125 12 199
-24 30 -14 73 -29 95 -34 22 -4 83 -18 135 -29 115 -26 187 -37 301 -46 l86
-7 21 35 c19 31 21 40 11 98 -15 94 -7 102 73 78 50 -15 57 -32 28 -63 -16
-17 -20 -29 -15 -42 5 -10 8 -21 7 -24 -1 -4 4 -6 11 -6 30 1 48 -4 43 -11 -7
-12 71 3 126 24 46 18 47 18 75 -2 53 -40 87 -52 131 -48 24 2 42 0 42 -6 0
-6 -12 -10 -26 -10 -22 0 -25 -2 -14 -15 16 -19 50 -20 50 -1 0 10 13 16 38
18 32 3 37 6 37 28 0 20 -8 28 -48 42 -44 16 -85 25 -125 27 -18 1 -6 60 17
84 16 16 20 16 52 3 19 -8 52 -34 74 -58 36 -39 55 -71 96 -163 8 -16 18 -33
24 -37 6 -5 4 -19 -8 -39 -10 -18 -16 -33 -15 -34 2 -1 19 -5 38 -9 33 -6 37
-4 51 28 14 31 14 34 0 29 -10 -3 -7 2 6 14 20 16 23 28 24 98 0 64 -20 188
-33 200 -6 6 -99 35 -110 35 -6 0 -20 7 -30 17 -13 11 -18 12 -18 3 0 -10 -4
-9 -17 1 -15 13 -15 12 -5 -6 6 -11 22 -35 36 -54 14 -19 24 -36 22 -39 -9 -8
-96 56 -96 71 0 14 -27 37 -44 37 -9 0 -16 -4 -16 -10 0 -12 -67 -30 -86 -23
-8 3 -14 1 -14 -5 0 -6 -13 -13 -30 -17 -16 -4 -32 -11 -35 -16 -7 -10 -45
-12 -69 -3 -9 3 -13 10 -10 15 3 5 -5 9 -18 9 -16 0 -19 3 -10 8 9 6 0 14 -28
28 -22 10 -40 22 -40 26 0 4 -10 7 -22 7 -28 -2 -70 14 -91 35 -14 14 -18 13
-45 -22 -36 -46 -62 -95 -62 -119 0 -15 -2 -16 -10 -3 -7 11 -10 12 -10 2 0
-14 -75 23 -112 56 -10 9 -28 12 -45 9 -33 -6 -55 1 -46 16 4 6 1 7 -8 2 -24
-15 -73 -6 -93 18 -17 20 -25 22 -120 20 -92 -3 -99 -2 -76 11 l25 14 -25 11
c-14 5 -37 20 -51 33 -15 13 -53 32 -85 43 -33 11 -65 25 -71 32 -18 16 -16
43 2 43 8 0 15 5 15 11 0 6 -9 9 -20 6 -32 -8 -16 30 30 76 45 43 41 45 -25
16 -80 -36 -105 -40 -112 -22 -4 9 -1 19 5 21 8 2 10 17 6 43 -5 31 -4 39 7
37 10 -2 14 10 15 44 1 25 8 60 17 77 l15 30 -32 3 c-18 2 -30 8 -29 16 2 6
-2 12 -7 12 -6 0 -10 10 -11 23 -1 16 -4 13 -11 -13 -20 -72 -50 -145 -65
-162 -24 -27 -53 -23 -53 7 0 14 -4 25 -10 25 -5 0 -10 12 -10 28 0 15 -5 34
-10 42 -8 12 -10 8 -11 -15 -1 -16 -1 -40 0 -53 1 -12 -3 -30 -8 -40 -8 -13
-10 0 -11 51 0 64 -20 137 -37 137 -4 0 -8 -57 -8 -126 0 -69 -3 -128 -7 -131
-5 -2 -8 1 -8 6 0 18 -21 12 -41 -11 -11 -11 -19 -33 -19 -47 0 -14 -4 -30 -8
-36 -9 -13 -42 -16 -42 -4 0 5 -3 8 -7 8 -5 -1 -19 -1 -34 0 -36 2 -62 77 -63
190 -1 49 -7 96 -15 109 -7 13 -10 30 -7 38 3 8 -1 17 -9 20 -8 4 -15 12 -15
20 0 8 -4 14 -10 14 -5 0 -10 7 -10 15 0 15 -19 54 -31 65 -23 21 -47 79 -42
101 3 13 2 21 -2 17 -11 -11 -47 39 -54 75 l-7 32 -212 3 -212 2 0 -1200z"/>
<path d="M460 2395 c0 -8 172 -308 183 -320 7 -7 7 -5 2 3 -4 9 0 15 14 19 17
4 19 8 10 19 -9 11 -9 17 0 28 9 11 9 15 -1 19 -10 4 -10 6 0 6 13 1 76 -91
85 -124 3 -15 5 -13 6 8 0 16 -4 37 -9 48 -12 22 -7 24 21 8 16 -8 19 -16 13
-45 -4 -25 -2 -40 9 -52 8 -9 17 -30 20 -47 l4 -30 2 33 c0 18 8 43 17 57 16
25 10 50 -23 85 -31 34 -83 121 -78 130 3 5 -1 7 -9 4 -12 -5 -14 5 -13 51 1
38 4 50 9 36 11 -30 26 -26 20 5 -3 15 -14 29 -28 34 -13 5 -24 14 -24 20 0 6
-43 10 -115 10 -63 0 -115 -2 -115 -5z"/>
<path d="M1221 2338 c10 -34 24 -87 30 -118 6 -30 24 -81 40 -112 16 -31 26
-64 23 -73 -4 -8 1 -26 10 -40 9 -13 16 -33 16 -45 0 -11 2 -20 4 -20 3 0 80
50 171 111 l166 111 67 -6 c37 -3 60 -3 51 0 -10 3 -19 21 -23 46 -4 22 -18
55 -31 72 -14 18 -25 42 -25 53 0 11 -5 34 -11 52 l-11 31 -248 0 -248 0 19
-62z"/>
<path d="M2073 2228 c-26 -13 -28 -25 -11 -65 13 -33 12 -30 22 -63 7 -24 17
-28 139 -54 73 -15 159 -29 192 -31 77 -4 165 -24 165 -37 0 -6 13 -7 31 -3
24 6 30 4 24 -5 -5 -9 -4 -11 4 -6 6 4 18 2 26 -4 8 -7 21 -10 29 -7 8 3 16 3
18 -1 6 -14 122 -41 151 -35 18 3 27 1 27 -7 0 -9 10 -11 31 -6 37 7 161 -23
152 -37 -3 -6 -1 -7 5 -3 6 4 29 -2 50 -13 21 -11 81 -29 133 -40 52 -12 117
-28 144 -36 28 -7 138 -37 245 -65 107 -28 202 -54 210 -57 8 -3 19 -5 24 -4
4 1 -6 -13 -24 -30 -17 -18 -39 -43 -47 -56 -11 -17 -19 -21 -26 -14 -16 16
-69 13 -91 -4 -18 -14 -18 -16 -3 -33 15 -16 15 -21 2 -38 -8 -10 -15 -14 -15
-8 0 5 6 16 13 23 10 11 9 13 -2 9 -13 -4 -44 -78 -36 -87 7 -6 35 20 30 29
-6 9 29 42 37 35 3 -3 13 6 22 21 10 14 20 23 23 20 3 -3 -7 -22 -23 -43 l-28
-38 33 28 c24 20 36 25 41 16 5 -6 13 -8 20 -4 9 5 11 4 6 -4 -5 -8 20 -49 66
-108 40 -53 76 -103 79 -112 4 -10 12 0 23 31 22 55 15 71 -48 123 -54 44 -93
93 -101 128 -6 22 1 36 47 84 29 32 68 81 86 108 l34 50 -57 -60 -56 -60 55
74 c47 63 56 81 56 117 l0 42 -87 7 c-118 9 -290 31 -388 50 -44 8 -179 33
-300 55 -121 21 -272 50 -335 63 -63 14 -171 36 -240 50 -219 45 -403 85 -460
101 -30 8 -64 17 -75 20 -11 3 -30 0 -42 -6z"/>
<path d="M2172 1556 c0 -23 6 -37 17 -41 48 -19 199 -37 294 -35 83 1 112 -2
129 -14 30 -21 45 -20 59 5 9 18 8 20 -8 15 -11 -4 -62 3 -114 13 -86 18 -133
30 -302 75 -76 21 -75 21 -75 -18z"/>
</g>
</svg>
